#N canvas 1091 230 1327 469 10;
#X obj 209 76 adc~;
#X obj 259 211 vocoder-voice 0 100;
#X obj 209 119 fft-array~ mic-fft;
#X obj 260 262 dac~;
#X obj 479 160 s 0volume;
#X msg 479 128 1;
#X obj 257 38 clone 100 music-osc 100;
#X msg 308 385 0 2 4 5 7 9 11;
#X msg 438 385 0 2 3 5 7 8 10;
#X msg 558 385 1 3 6 8 10;
#X obj 434 437 s global-scale;
#X obj 480 297 s global-root-note;
#X floatatom 481 248 5 0 0 0 - - -, f 5;
#X obj 92 283 scales;
#X obj 479 97 loadbang;
#X connect 0 0 2 0;
#X connect 1 0 3 0;
#X connect 1 0 3 1;
#X connect 5 0 4 0;
#X connect 7 0 10 0;
#X connect 8 0 10 0;
#X connect 9 0 10 0;
#X connect 12 0 11 0;
#X connect 14 0 5 0;
#X connect 14 0 1 0;
