#N canvas 471 762 1146 446 10;
#X obj 269 255 dac~;
#X obj 341 214 rev3~ 100 80 3000 20;
#X obj 536 258 scales;
#X obj 240 170 clone 8 music-image 100;
#X text 386 168 <- num-grains;
#X obj 257 38 clone 100 music-osc 100;
#X msg 573 194 0 2 4 5 7 9 11;
#X msg 703 194 0 2 3 5 7 8 10;
#X msg 823 194 1 3 6 8 10;
#X obj 699 246 s global-scale;
#X obj 745 106 s global-root-note;
#X floatatom 746 57 5 0 0 0 - - -, f 5;
#X connect 1 0 0 0;
#X connect 1 1 0 1;
#X connect 3 0 0 0;
#X connect 3 0 1 0;
#X connect 3 1 0 1;
#X connect 3 1 1 1;
#X connect 6 0 9 0;
#X connect 7 0 9 0;
#X connect 8 0 9 0;
#X connect 11 0 10 0;
