#N canvas 1337 472 742 665 10;
#X obj 299 272 outlet~;
#X obj 329 234 pan~;
#X obj 376 272 outlet~;
#X obj 392 214 r \$1pan;
#X obj 452 304 r \$1resolution-y;
#X obj 452 325 change;
#X obj 452 347 s \$1resolution-y-change;
#X obj 452 395 change;
#X obj 452 374 r \$1resolution-x;
#X obj 452 417 s \$1resolution-x-change;
#X obj 392 236 change;
#X obj 281 539 *;
#X obj 281 504 r \$1phase;
#X obj 281 602 s \$1phase-res-x;
#X obj 281 574 int;
#X obj 317 540 r \$1resolution-x-change;
#X obj 329 164 *~;
#X obj 392 174 line~;
#X msg 392 149 \$1 10;
#X obj 392 124 r \$1volume;
#N canvas 354 288 566 594 dump-image-table 0;
#X obj 132 305 until;
#X obj 132 336 f;
#X obj 161 336 + 1;
#X msg 173 304 0;
#X obj 105 531 print;
#X obj 132 440 list-extend;
#X obj 105 485 list;
#X obj 132 409 > 0.5;
#X text 104 47 print image 1 in ASCII;
#X obj 105 242 f;
#X obj 105 112 t b b;
#X obj 195 273 t b;
#X obj 105 267 t b f;
#X obj 132 376 tabread 0image-column;
#X obj 105 79 inlet;
#X obj 120 218 r 0resolution-y-change;
#X connect 0 0 1 0;
#X connect 1 0 2 0;
#X connect 1 0 13 0;
#X connect 2 0 1 1;
#X connect 3 0 1 1;
#X connect 5 0 6 1;
#X connect 6 0 4 0;
#X connect 7 0 5 0;
#X connect 9 0 12 0;
#X connect 10 0 9 0;
#X connect 10 1 11 0;
#X connect 11 0 5 1;
#X connect 11 0 3 0;
#X connect 12 0 6 0;
#X connect 12 1 0 0;
#X connect 13 0 7 0;
#X connect 14 0 10 0;
#X connect 15 0 9 1;
#X restore 58 524 pd dump-image-table;
#X obj 58 500 t b;
#X msg 340 347 100;
#X obj 153 372 r \$1vals;
#X obj 22 296 array define \$1image-column 200;
#X obj 153 416 array set \$1image-column;
#X obj 329 93 clone \$2 music-grain \$1 \$2;
#X obj 329 128 /~ 25;
#X connect 1 0 0 0;
#X connect 1 1 2 0;
#X connect 3 0 10 0;
#X connect 4 0 5 0;
#X connect 5 0 6 0;
#X connect 7 0 9 0;
#X connect 8 0 7 0;
#X connect 10 0 1 1;
#X connect 11 0 14 0;
#X connect 12 0 11 0;
#X connect 14 0 13 0;
#X connect 15 0 11 1;
#X connect 16 0 1 0;
#X connect 17 0 16 1;
#X connect 18 0 17 0;
#X connect 19 0 18 0;
#X connect 21 0 20 0;
#X connect 22 0 5 0;
#X connect 22 0 7 0;
#X connect 23 0 25 0;
#X connect 26 0 27 0;
#X connect 27 0 16 0;
