#N canvas 172 359 557 474 10;
#X obj 265 368 vline~;
#X obj 228 367 *~;
#X obj 228 410 outlet~;
#X obj 228 18 inlet~;
#X obj 228 124 +~;
#X obj 252 92 *~;
#X obj 104 110 hradio 10 1 0 8 \$0ratio empty empty 0 -8 0 10 -262144
-1 -1 1;
#X obj 103 53 loadbang;
#X msg 105 72 1;
#X obj 107 124 hsl 80 15 0 5000 0 0 \$0mod empty m 20 7 0 10 -262144
-1 -1 7900 1;
#X obj 228 45 *~;
#X obj 107 144 hsl 80 15 0 1000 0 0 \$0attack empty a 20 7 0 10 -262144
-1 -1 400 1;
#X obj 107 164 hsl 80 15 0 1000 0 0 \$0decay empty d 20 7 0 10 -262144
-1 -1 6100 1;
#X obj 107 184 hsl 80 15 0 1 0 0 \$0end empty e 20 7 0 10 -262144 -1
-1 0 1;
#X obj 407 247 r \$0end;
#X obj 268 44 r \$0mod;
#X obj 377 20 r \$0ratio;
#X msg 265 347 1 \$1 \, \$3 \$2 \$1;
#X obj 407 271 t b f;
#X obj 407 221 t b f;
#X obj 407 197 r \$0decay;
#X obj 407 177 r \$0attack;
#X obj 265 306 list;
#X obj 265 327 list trim;
#X obj 300 304 pack 0 0 0;
#X obj 300 276 loadbang;
#X obj 378 48 sel 0;
#X msg 378 70 0.5;
#X obj 26 104 sssad \$1/r;
#X obj 26 124 sssad \$1/m;
#X obj 26 144 sssad \$1/a;
#X obj 26 164 sssad \$1/d;
#X obj 26 184 sssad \$1/e;
#X obj 252 65 r~ \$2freq;
#X obj 265 251 r \$2trigger;
#X obj 228 146 blsquare~;
#X obj 307 141 sig~ 0.5;
#X connect 0 0 1 1;
#X connect 1 0 2 0;
#X connect 3 0 10 0;
#X connect 4 0 35 0;
#X connect 5 0 4 1;
#X connect 6 0 28 1;
#X connect 7 0 8 0;
#X connect 8 0 6 0;
#X connect 9 0 29 1;
#X connect 10 0 4 0;
#X connect 11 0 30 1;
#X connect 12 0 31 1;
#X connect 13 0 32 1;
#X connect 14 0 18 0;
#X connect 15 0 10 1;
#X connect 16 0 26 0;
#X connect 17 0 0 0;
#X connect 18 0 24 0;
#X connect 18 1 24 2;
#X connect 19 0 24 0;
#X connect 19 1 24 1;
#X connect 20 0 19 0;
#X connect 21 0 24 0;
#X connect 22 0 23 0;
#X connect 23 0 17 0;
#X connect 24 0 22 1;
#X connect 25 0 24 0;
#X connect 26 0 27 0;
#X connect 26 1 5 1;
#X connect 27 0 5 1;
#X connect 28 0 6 0;
#X connect 29 0 9 0;
#X connect 30 0 11 0;
#X connect 31 0 12 0;
#X connect 32 0 13 0;
#X connect 33 0 5 0;
#X connect 34 0 22 0;
#X connect 35 0 1 0;
#X connect 36 0 35 1;
#X coords 0 -1 1 1 100 100 1 100 100;
