#N canvas 243 80 842 642 10;
#X obj 397 416 s~ \$0freq;
#X obj 397 383 mtof~;
#X obj 19 548 dac~;
#X obj 27 491 *~ 0.1;
#X obj 312 131 s \$0trigger;
#X obj 312 99 bng 15 250 50 0 empty empty empty 17 7 0 10 -262144 -1
-1;
#X obj 312 34 tgl 15 0 empty empty empty 17 7 0 10 -262144 -1 -1 0
1;
#X msg 396 145 0;
#X msg 422 145 2;
#X msg 453 145 4;
#X msg 483 145 6;
#X msg 513 145 8;
#X obj 312 66 metro 1000;
#X obj 160 491 *~ 0.1;
#X obj 117 491 *~ 0.1;
#X obj 118 471 rev3~ 100 90 3000 20;
#X msg 654 357 \; \$1-SSSAD /3/e 0 \; \$1-SSSAD /3/d 620.253 \; \$1-SSSAD
/3/a 63.2911 \; \$1-SSSAD /3/r 0 \; \$1-SSSAD /1/e 0 \; \$1-SSSAD /1/d
341.772 \; \$1-SSSAD /1/a 265.823 \; \$1-SSSAD /1/m 354.43 \; \$1-SSSAD
/1/r 1 \; \$1-SSSAD /0/e 0 \; \$1-SSSAD /0/d 417.722 \; \$1-SSSAD /0/a
0 \; \$1-SSSAD /0/r 5 \; \$1-SSSAD /2/e 0 \; \$1-SSSAD /2/d 772.152
\; \$1-SSSAD /2/a 50.6329 \; \$1-SSSAD /2/m 481.013 \; \$1-SSSAD /2/r
1 \;;
#X obj 27 426 +~;
#X obj 397 350 +~;
#X obj 463 362 osc~ 7;
#X obj 463 395 *~ 0.1;
#X obj 27 152 fm-op-2 /1 \$0;
#X obj 27 15 fm-op-2 /0 \$0;
#X obj 27 289 fm-op-2 /2 \$0;
#X obj 137 155 fm-op-2 /3 \$0;
#X obj 654 279 sssad-gui;
#X obj 414 35 hsl 128 15 0 1000 0 0 empty empty empty -2 -8 0 10 -262144
-1 -1 0 1;
#X msg 543 145 10;
#X obj 331 112 random 6;
#X msg 573 145 12;
#X obj 396 112 sel 0 1 2 3 4 5;
#X obj 436 244 random 3;
#X obj 436 317 * 12;
#X obj 397 320 +;
#X text 133 321 <- modulate me;
#X obj 396 178 +;
#X obj 396 211 t a b;
#X obj 503 272 hradio 10 1 0 8 empty empty empty 0 -8 0 10 -262144
-1 -1 4;
#X obj 503 292 hradio 10 1 0 8 empty empty empty 0 -8 0 10 -262144
-1 -1 0;
#X obj 436 275 +;
#X msg 494 417 \; \$1-SSSAD /3/e 0 \; \$1-SSSAD /3/d 620.253 \; \$1-SSSAD
/3/a 63.2911 \; \$1-SSSAD /3/r 0 \; \$1-SSSAD /1/e 0 \; \$1-SSSAD /1/d
341.772 \; \$1-SSSAD /1/a 265.823 \; \$1-SSSAD /1/m 354.43 \; \$1-SSSAD
/1/r 1 \; \$1-SSSAD /0/e 0 \; \$1-SSSAD /0/d 417.722 \; \$1-SSSAD /0/a
0 \; \$1-SSSAD /0/r 5 \; \$1-SSSAD /2/e 0 \; \$1-SSSAD /2/d 772.152
\; \$1-SSSAD /2/a 50.6329 \; \$1-SSSAD /2/m 481.013 \; \$1-SSSAD /2/r
1 \;;
#X connect 1 0 0 0;
#X connect 3 0 2 0;
#X connect 3 0 2 1;
#X connect 5 0 4 0;
#X connect 6 0 12 0;
#X connect 7 0 35 0;
#X connect 8 0 35 0;
#X connect 9 0 35 0;
#X connect 10 0 35 0;
#X connect 11 0 35 0;
#X connect 12 0 5 0;
#X connect 12 0 28 0;
#X connect 13 0 2 1;
#X connect 14 0 2 0;
#X connect 15 0 14 0;
#X connect 15 1 13 0;
#X connect 17 0 15 0;
#X connect 17 0 3 0;
#X connect 18 0 1 0;
#X connect 19 0 20 0;
#X connect 20 0 18 1;
#X connect 21 0 23 0;
#X connect 22 0 17 1;
#X connect 22 0 21 0;
#X connect 23 0 17 0;
#X connect 24 0 23 0;
#X connect 25 0 16 0;
#X connect 26 0 12 1;
#X connect 27 0 35 0;
#X connect 28 0 30 0;
#X connect 29 0 35 0;
#X connect 30 0 7 0;
#X connect 30 1 8 0;
#X connect 30 2 9 0;
#X connect 30 3 10 0;
#X connect 30 4 11 0;
#X connect 30 5 27 0;
#X connect 30 5 29 0;
#X connect 31 0 39 0;
#X connect 32 0 33 1;
#X connect 33 0 18 0;
#X connect 35 0 36 0;
#X connect 36 0 33 0;
#X connect 36 1 31 0;
#X connect 37 0 31 1;
#X connect 38 0 39 1;
#X connect 39 0 32 0;
