#N canvas 0 22 1012 620 10;
#X obj 360 571 s~ \$0freq;
#X obj 360 538 mtof~;
#X obj 27 491 *~ 0.1;
#X obj 279 401 s \$0trigger;
#X obj 359 189 tgl 15 0 empty empty empty 17 7 0 10 -262144 -1 -1 1
1;
#X msg 359 300 0;
#X msg 385 300 2;
#X msg 416 300 4;
#X msg 446 300 6;
#X msg 476 300 8;
#X obj 359 221 metro 1000;
#X msg 801 95 \; \$1-SSSAD /octave-base 2 \; \$1-SSSAD /octave-range
5 \; \$1-SSSAD /3/e 0 \; \$1-SSSAD /3/d 620.253 \; \$1-SSSAD /3/a 63.2911
\; \$1-SSSAD /3/r 0 \; \$1-SSSAD /2/e 0 \; \$1-SSSAD /2/d 772.152 \;
\$1-SSSAD /2/a 50.6329 \; \$1-SSSAD /2/m 481.013 \; \$1-SSSAD /2/r
1 \; \$1-SSSAD /0/e 0 \; \$1-SSSAD /0/d 417.722 \; \$1-SSSAD /0/a 0
\; \$1-SSSAD /0/r 5 \; \$1-SSSAD /1/e 0 \; \$1-SSSAD /1/d 341.772 \;
\$1-SSSAD /1/a 265.823 \; \$1-SSSAD /1/m 354.43 \; \$1-SSSAD /1/r 1
\; \$1-SSSAD_ADMIN set \;;
#X obj 27 426 +~;
#X obj 360 505 +~;
#X obj 426 517 osc~ 7;
#X obj 426 550 *~ 0.1;
#X obj 27 152 fm-op-2 /1 \$0;
#X obj 27 15 fm-op-2 /0 \$0;
#X obj 27 289 fm-op-2 /2 \$0;
#X obj 137 155 fm-op-2 /3 \$0;
#X obj 461 190 hsl 128 15 0 1000 0 0 empty empty empty -2 -8 0 10 -262144
-1 -1 3400 1;
#X msg 506 300 10;
#X obj 359 242 random 6;
#X msg 536 300 12;
#X obj 359 267 sel 0 1 2 3 4 5;
#X obj 399 399 random 3;
#X obj 399 472 * 12;
#X obj 360 475 +;
#X text 133 321 <- modulate me;
#X obj 359 333 +;
#X obj 466 427 hradio 10 1 0 8 empty empty empty 0 -8 0 10 -262144
-1 -1 0;
#X obj 466 447 hradio 10 1 0 8 empty empty empty 0 -8 0 10 -262144
-1 -1 2;
#X obj 399 430 +;
#X obj 801 17 sssad-gui \$0;
#X obj 28 548 throw~ fm-voice;
#X obj 560 440 sssad /octave-range \$0;
#X obj 560 470 sssad /octave-base \$0;
#X obj 359 366 t b a b;
#X obj 368 34 inlet;
#X obj 368 63 route laser;
#X connect 1 0 0 0;
#X connect 2 0 34 0;
#X connect 4 0 10 0;
#X connect 5 0 29 0;
#X connect 6 0 29 0;
#X connect 7 0 29 0;
#X connect 8 0 29 0;
#X connect 9 0 29 0;
#X connect 10 0 22 0;
#X connect 12 0 2 0;
#X connect 13 0 1 0;
#X connect 14 0 15 0;
#X connect 15 0 13 1;
#X connect 16 0 18 0;
#X connect 17 0 12 1;
#X connect 17 0 16 0;
#X connect 18 0 12 0;
#X connect 19 0 18 0;
#X connect 20 0 10 1;
#X connect 21 0 29 0;
#X connect 22 0 24 0;
#X connect 23 0 29 0;
#X connect 24 0 5 0;
#X connect 24 1 6 0;
#X connect 24 2 7 0;
#X connect 24 3 8 0;
#X connect 24 4 9 0;
#X connect 24 5 21 0;
#X connect 24 5 23 0;
#X connect 25 0 32 0;
#X connect 26 0 27 1;
#X connect 27 0 13 0;
#X connect 29 0 37 0;
#X connect 30 0 25 1;
#X connect 30 0 35 1;
#X connect 31 0 32 1;
#X connect 31 0 36 1;
#X connect 32 0 26 0;
#X connect 33 0 11 0;
#X connect 35 0 30 0;
#X connect 36 0 31 0;
#X connect 37 0 3 0;
#X connect 37 1 27 0;
#X connect 37 2 25 0;
#X connect 38 0 39 0;
