#N canvas 144 127 842 642 10;
#X obj 357 365 s~ \$0freq;
#X obj 357 338 mtof~;
#X obj 19 548 dac~;
#X obj 27 491 *~ 0.1;
#X obj 264 216 s \$0trigger;
#X obj 262 172 bng 15 250 50 0 empty empty empty 17 7 0 10 -262144
-1 -1;
#X obj 247 94 tgl 15 0 empty empty empty 17 7 0 10 -262144 -1 -1 1
1;
#X obj 296 166 random 5;
#X obj 356 189 sel 0 1 2 3 4;
#X msg 356 213 0;
#X msg 382 213 2;
#X msg 413 213 4;
#X msg 443 213 6;
#X msg 473 213 8;
#X obj 250 133 metro 1000;
#X obj 160 508 *~ 0.1;
#X obj 117 508 *~ 0.1;
#X obj 118 479 rev3~ 100 90 3000 20;
#X obj 574 229 list trim;
#X msg 574 254 \; SSSAD /3/e 0 \; SSSAD /3/d 354.43 \; SSSAD /3/a 63.2911
\; SSSAD /3/r 0 \; SSSAD /1/e 0 \; SSSAD /1/d 341.772 \; SSSAD /1/a
265.823 \; SSSAD /1/m 354.43 \; SSSAD /1/r 1 \; SSSAD /0/e 0 \; SSSAD
/0/d 417.722 \; SSSAD /0/a 0 \; SSSAD /0/m 0 \; SSSAD /0/r 5 \; SSSAD
/2/e 0 \; SSSAD /2/d 215.19 \; SSSAD /2/a 63.2911 \; SSSAD /2/m 481.013
\; SSSAD /2/r 1 \;;
#X msg 573 33 save;
#X obj 632 50 bng 15 250 50 0 empty empty restore 17 7 0 10 -262144
-1 -1;
#X msg 691 105 set \, addsemi;
#X obj 574 203 list prepend add SSSAD;
#X obj 574 125 s SSSAD_ADMIN;
#X obj 574 155 r SSSAD_ADMIN;
#X msg 632 94 set;
#X obj 573 59 t a b;
#X obj 574 180 route persist;
#X obj 632 69 t b b;
#X obj 632 26 loadbang;
#X obj 27 430 +~;
#X obj 357 250 + 60;
#X obj 27 260 fm-op /2 \$0;
#X obj 27 15 fm-op /0 \$0;
#X obj 27 135 fm-op /1 \$0;
#X obj 137 135 fm-op /3 \$0;
#X obj 357 316 +~;
#X obj 422 309 osc~ 7;
#X obj 422 330 *~ 0.1;
#X connect 1 0 0 0;
#X connect 3 0 2 0;
#X connect 3 0 2 1;
#X connect 5 0 4 0;
#X connect 6 0 14 0;
#X connect 7 0 8 0;
#X connect 8 0 9 0;
#X connect 8 1 10 0;
#X connect 8 2 11 0;
#X connect 8 3 12 0;
#X connect 8 4 13 0;
#X connect 9 0 32 0;
#X connect 10 0 32 0;
#X connect 11 0 32 0;
#X connect 12 0 32 0;
#X connect 13 0 32 0;
#X connect 14 0 5 0;
#X connect 14 0 7 0;
#X connect 15 0 2 1;
#X connect 16 0 2 0;
#X connect 17 0 16 0;
#X connect 17 1 15 0;
#X connect 18 0 19 0;
#X connect 20 0 27 0;
#X connect 21 0 29 0;
#X connect 22 0 19 0;
#X connect 23 0 18 0;
#X connect 25 0 28 0;
#X connect 26 0 24 0;
#X connect 27 0 24 0;
#X connect 27 1 22 0;
#X connect 28 0 23 0;
#X connect 29 0 26 0;
#X connect 29 1 19 0;
#X connect 30 0 21 0;
#X connect 31 0 17 0;
#X connect 31 0 3 0;
#X connect 32 0 37 0;
#X connect 33 0 31 0;
#X connect 34 0 31 1;
#X connect 34 0 35 0;
#X connect 35 0 33 0;
#X connect 36 0 33 0;
#X connect 37 0 1 0;
#X connect 38 0 39 0;
#X connect 39 0 37 1;
