#N canvas 565 22 698 564 10;
#X obj 114 464 dac~;
#X obj 264 320 vline~;
#X obj 124 414 *~ 0.2;
#X obj 124 256 +~ 440;
#X obj 558 81 bl-init.mmb;
#X obj 124 227 *~ 440;
#X obj 124 288 *~;
#X obj 254 351 *~;
#X obj 124 190 osc~;
#X msg 121 153 880;
#X obj 212 94 bng 15 250 50 0 empty empty empty 17 7 0 10 -262144 -1
-1;
#X obj 124 369 *~;
#X obj 124 313 +~ 880;
#X msg 257 272 1 \, 0 500;
#X obj 254 378 *~ 500;
#X obj 124 343 bl-saw.mmb~;
#X connect 1 0 7 0;
#X connect 1 0 7 1;
#X connect 2 0 0 0;
#X connect 2 0 0 1;
#X connect 3 0 6 0;
#X connect 5 0 3 0;
#X connect 6 0 12 0;
#X connect 7 0 11 1;
#X connect 7 0 14 0;
#X connect 8 0 5 0;
#X connect 9 0 8 0;
#X connect 10 0 13 0;
#X connect 11 0 2 0;
#X connect 12 0 15 0;
#X connect 13 0 1 0;
#X connect 14 0 6 1;
#X connect 15 0 11 0;
