#N canvas 980 34 450 300 10;
#X obj 118 221 rev3~ 100 90 3000 20;
#X obj 98 188 catch~ fm-voice;
#X obj 91 268 dac~;
#X obj 42 14 r ship-velocities;
#X obj 42 124 list-enumerate;
#X obj 69 65 list length;
#X obj 69 93 s enable-voices;
#X obj 42 38 t a a;
#X obj 42 154 clone spaceship-engine 8;
#X connect 0 0 2 0;
#X connect 0 1 2 1;
#X connect 1 0 0 0;
#X connect 1 0 2 0;
#X connect 1 0 2 1;
#X connect 3 0 7 0;
#X connect 4 0 8 0;
#X connect 5 0 6 0;
#X connect 7 0 4 0;
#X connect 7 1 5 0;
