#N canvas 199 48 1268 585 10;
#X obj 138 381 rev3~ 100 90 3000 20;
#X obj 51 418 dac~;
#X obj 42 14 r ship-velocities;
#X obj 42 124 list-enumerate;
#X obj 69 65 list length;
#X obj 69 93 s enable-voices;
#X obj 42 38 t a a;
#X obj 247 15 r ship-laser;
#X msg 247 61 next \$1;
#X obj 58 379 +~;
#X msg 368 400 next \$1;
#X obj 368 239 r ship-explode;
#X obj 485 218 tgl 15 0 empty empty empty 17 7 0 10 -262144 -1 -1 0
1;
#X obj 485 305 random 4;
#X obj 504 337 random 5;
#X obj 504 359 + 2;
#X obj 485 384 +;
#X obj 485 268 t b b;
#X obj 368 429 clone spaceship-explode 4;
#X obj 141 297 catch~ explode;
#X obj 141 316 *~ 1.5;
#X obj 118 268 catch~ laser;
#X obj 55 234 catch~ engine;
#X text 58 212 sound mix;
#X msg 440 61 next \$1;
#X text 356 255 fixme: this was supposed to connect to the right>;
#X obj 625 52 i;
#X obj 653 52 + 1;
#X obj 681 51 % 5;
#X obj 624 10 tgl 15 0 empty empty empty 17 7 0 10 -262144 -1 -1 0
1;
#X obj 440 15 r ship-goal;
#X obj 440 92 clone spaceship-collect 8;
#X obj 330 67 random 4;
#X obj 330 19 tgl 15 0 empty empty empty 17 7 0 10 -262144 -1 -1 0
1;
#X obj 247 92 clone spaceship-laser 8;
#X obj 55 261 *~ 0.3;
#X obj 42 154 clone spaceship-engine 8;
#X obj 259 183 r ship-spawn;
#X obj 330 42 dust 400;
#X obj 485 238 dust 2000;
#N canvas 654 474 480 427 note-run 0;
#X obj 152 273 t a;
#X obj 67 222 f;
#X obj 102 222 + 1;
#X obj 138 142 random 2;
#X obj 138 164 sel 0 1;
#X msg 310 179 0;
#X obj 67 273 list prepend;
#X obj 66 125 until;
#X obj 41 22 inlet;
#X text 117 28 generates a sequence of N items increasing by 1 or 2
each time;
#X obj 64 158 t b b;
#X obj 40 309 list;
#X obj 41 57 t b b b;
#X obj 346 178 t b;
#X obj 40 343 outlet;
#X msg 138 193 1;
#X msg 178 193 2;
#X msg 66 93 5;
#X connect 0 0 6 1;
#X connect 1 0 2 0;
#X connect 1 0 6 0;
#X connect 2 0 1 1;
#X connect 3 0 4 0;
#X connect 4 0 15 0;
#X connect 4 1 16 0;
#X connect 5 0 1 1;
#X connect 6 0 0 0;
#X connect 6 0 11 1;
#X connect 7 0 10 0;
#X connect 8 0 12 0;
#X connect 10 0 1 0;
#X connect 10 1 3 0;
#X connect 11 0 14 0;
#X connect 12 0 11 0;
#X connect 12 1 17 0;
#X connect 12 2 13 0;
#X connect 13 0 5 0;
#X connect 13 0 6 1;
#X connect 15 0 2 1;
#X connect 16 0 2 1;
#X connect 17 0 7 0;
#X restore 743 195 pd note-run;
#X obj 743 267 list-map;
#X obj 834 182 random 3;
#X obj 834 205 + 4;
#X obj 743 165 t b b;
#X obj 743 371 prepent next;
#X obj 743 416 list split 1;
#X obj 863 226 r root-note;
#X obj 892 246 r scale;
#X obj 805 267 degree-to-note2;
#X obj 743 394 clone strum-voice 11 strum-length;
#X obj 742 131 bng 15 250 50 0 empty empty empty 17 7 0 10 -262144
-1 -1;
#X obj 777 442 prepent next;
#X obj 901 322 loadbang;
#X obj 625 30 dust 1000;
#X obj 742 85 dust 500;
#X obj 743 50 tgl 15 0 empty empty empty 17 7 0 10 -262144 -1 -1 1
1;
#X msg 901 345 \; strum-length 70;
#X obj 665 303 print;
#X obj 777 472 clone spaceship-spawn 8;
#N canvas 654 474 480 427 note-run 0;
#X obj 152 273 t a;
#X obj 67 222 f;
#X obj 102 222 + 1;
#X obj 138 142 random 2;
#X obj 138 164 sel 0 1;
#X msg 310 179 0;
#X obj 67 273 list prepend;
#X obj 66 125 until;
#X obj 41 22 inlet;
#X text 117 28 generates a sequence of N items increasing by 1 or 2
each time;
#X obj 64 158 t b b;
#X obj 40 309 list;
#X obj 41 57 t b b b;
#X obj 346 178 t b;
#X obj 40 343 outlet;
#X msg 138 193 1;
#X msg 178 193 2;
#X msg 66 93 4;
#X connect 0 0 6 1;
#X connect 1 0 2 0;
#X connect 1 0 6 0;
#X connect 2 0 1 1;
#X connect 3 0 4 0;
#X connect 4 0 15 0;
#X connect 4 1 16 0;
#X connect 5 0 1 1;
#X connect 6 0 0 0;
#X connect 6 0 11 1;
#X connect 7 0 10 0;
#X connect 8 0 12 0;
#X connect 10 0 1 0;
#X connect 10 1 3 0;
#X connect 11 0 14 0;
#X connect 12 0 11 0;
#X connect 12 1 17 0;
#X connect 12 2 13 0;
#X connect 13 0 5 0;
#X connect 13 0 6 1;
#X connect 15 0 2 1;
#X connect 16 0 2 1;
#X connect 17 0 7 0;
#X restore 1013 195 pd note-run;
#X obj 1013 267 list-map;
#X obj 1104 182 random 3;
#X obj 1013 165 t b b;
#X obj 1133 226 r root-note;
#X obj 1162 246 r scale;
#X obj 1075 267 degree-to-note2;
#X obj 1012 131 bng 15 250 50 0 empty empty empty 17 7 0 10 -262144
-1 -1;
#X obj 1012 85 dust 500;
#X obj 1013 50 tgl 15 0 empty empty empty 17 7 0 10 -262144 -1 -1 1
1;
#X obj 1104 205 + 6;
#X obj 824 112 r ship-spawn;
#X obj 1111 106 r goal-spawn;
#X connect 0 0 1 0;
#X connect 0 1 1 1;
#X connect 2 0 6 0;
#X connect 3 0 36 0;
#X connect 4 0 5 0;
#X connect 6 0 3 0;
#X connect 6 1 4 0;
#X connect 7 0 8 0;
#X connect 8 0 34 0;
#X connect 9 0 1 0;
#X connect 9 0 1 1;
#X connect 10 0 18 0;
#X connect 11 0 10 0;
#X connect 12 0 39 0;
#X connect 13 0 16 0;
#X connect 13 0 10 0;
#X connect 14 0 15 0;
#X connect 15 0 16 1;
#X connect 16 0 10 0;
#X connect 17 0 13 0;
#X connect 17 1 14 0;
#X connect 19 0 20 0;
#X connect 20 0 0 0;
#X connect 20 0 9 0;
#X connect 21 0 0 0;
#X connect 21 0 9 0;
#X connect 22 0 35 0;
#X connect 24 0 31 0;
#X connect 26 0 27 0;
#X connect 26 0 24 0;
#X connect 27 0 28 0;
#X connect 28 0 26 1;
#X connect 29 0 54 0;
#X connect 30 0 24 0;
#X connect 32 0 8 0;
#X connect 33 0 38 0;
#X connect 35 0 9 0;
#X connect 38 0 32 0;
#X connect 39 0 17 0;
#X connect 40 0 41 0;
#X connect 40 0 58 0;
#X connect 41 0 45 0;
#X connect 41 1 49 0;
#X connect 42 0 43 0;
#X connect 43 0 49 1;
#X connect 44 0 40 0;
#X connect 44 1 42 0;
#X connect 45 0 50 0;
#X connect 46 1 52 0;
#X connect 47 0 49 2;
#X connect 48 0 49 3;
#X connect 49 0 41 1;
#X connect 50 0 46 0;
#X connect 51 0 44 0;
#X connect 52 0 59 0;
#X connect 53 0 57 0;
#X connect 54 0 26 0;
#X connect 55 0 51 0;
#X connect 56 0 55 0;
#X connect 60 0 61 0;
#X connect 61 0 45 0;
#X connect 61 1 66 0;
#X connect 62 0 70 0;
#X connect 63 0 60 0;
#X connect 63 1 62 0;
#X connect 64 0 66 2;
#X connect 65 0 66 3;
#X connect 66 0 61 1;
#X connect 67 0 63 0;
#X connect 68 0 67 0;
#X connect 69 0 68 0;
#X connect 70 0 66 1;
#X connect 71 0 51 0;
#X connect 72 0 67 0;
