#N canvas 391 22 756 475 10;
#X obj 138 381 rev3~ 100 90 3000 20;
#X obj 51 418 dac~;
#X obj 42 14 r ship-velocities;
#X obj 42 124 list-enumerate;
#X obj 69 65 list length;
#X obj 69 93 s enable-voices;
#X obj 42 38 t a a;
#X obj 247 15 r ship-laser;
#X msg 247 61 next \$1;
#X obj 55 261 *~ 0.6;
#X obj 58 379 +~;
#X msg 308 330 next \$1;
#X obj 308 169 r ship-explode;
#X obj 425 148 tgl 15 0 empty empty empty 17 7 0 10 -262144 -1 -1 0
1;
#X obj 425 168 metro 1000;
#X obj 425 235 random 4;
#X obj 444 267 random 5;
#X obj 444 289 + 2;
#X obj 425 314 +;
#X obj 425 198 t b b;
#X obj 308 359 clone spaceship-explode 4;
#X obj 141 297 catch~ explode;
#X obj 141 316 *~ 1.5;
#X obj 247 92 clone spaceship-laser 8;
#X obj 42 154 clone spaceship-engine 8;
#X obj 118 268 catch~ laser;
#X obj 55 234 catch~ engine;
#X text 58 212 sound mix;
#X msg 440 61 next \$1;
#X text 296 185 fixme: this was supposed to connect to the right>;
#X obj 527 323 i;
#X obj 555 323 + 1;
#X obj 583 322 % 5;
#X obj 529 251 tgl 15 0 empty empty empty 17 7 0 10 -262144 -1 -1 0
1;
#X obj 529 271 metro 1000;
#X obj 440 92 clone spaceship-collect 8;
#X obj 523 134 spaceship-collect;
#X obj 440 15 r ship-goal;
#X connect 0 0 1 0;
#X connect 0 1 1 1;
#X connect 2 0 6 0;
#X connect 3 0 24 0;
#X connect 4 0 5 0;
#X connect 6 0 3 0;
#X connect 6 1 4 0;
#X connect 7 0 8 0;
#X connect 8 0 23 0;
#X connect 9 0 10 0;
#X connect 10 0 1 0;
#X connect 10 0 1 1;
#X connect 11 0 20 0;
#X connect 12 0 11 0;
#X connect 13 0 14 0;
#X connect 14 0 19 0;
#X connect 15 0 18 0;
#X connect 15 0 11 0;
#X connect 16 0 17 0;
#X connect 17 0 18 1;
#X connect 18 0 11 0;
#X connect 19 0 15 0;
#X connect 19 1 16 0;
#X connect 21 0 22 0;
#X connect 22 0 0 0;
#X connect 22 0 10 0;
#X connect 25 0 0 0;
#X connect 25 0 10 0;
#X connect 26 0 9 0;
#X connect 28 0 35 0;
#X connect 30 0 31 0;
#X connect 30 0 28 0;
#X connect 31 0 32 0;
#X connect 32 0 30 1;
#X connect 33 0 34 0;
#X connect 34 0 30 0;
#X connect 37 0 28 0;
