#N canvas 391 22 659 474 10;
#X obj 138 241 rev3~ 100 90 3000 20;
#X obj 118 208 catch~ fm-voice;
#X obj 51 278 dac~;
#X obj 42 14 r ship-velocities;
#X obj 42 124 list-enumerate;
#X obj 69 65 list length;
#X obj 69 93 s enable-voices;
#X obj 42 38 t a a;
#X obj 247 15 r ship-laser;
#X obj 247 92 clone spaceship-laser 8;
#X msg 247 61 next \$1;
#X obj 55 174 catch~ engine-voice;
#X obj 55 201 *~ 0.6;
#X obj 42 154 clone spaceship-engine 8;
#X obj 58 239 +~;
#X msg 308 330 next \$1;
#X obj 308 169 r ship-explode;
#X obj 425 148 tgl 15 0 empty empty empty 17 7 0 10 -262144 -1 -1 1
1;
#X obj 425 168 metro 1000;
#X obj 425 235 random 4;
#X obj 444 267 random 5;
#X obj 444 289 + 2;
#X obj 425 314 +;
#X obj 425 198 t b b;
#X obj 308 359 clone spaceship-explode 4;
#X connect 0 0 2 0;
#X connect 0 1 2 1;
#X connect 1 0 0 0;
#X connect 1 0 14 0;
#X connect 3 0 7 0;
#X connect 4 0 13 0;
#X connect 5 0 6 0;
#X connect 7 0 4 0;
#X connect 7 1 5 0;
#X connect 8 0 10 0;
#X connect 10 0 9 0;
#X connect 11 0 12 0;
#X connect 12 0 14 0;
#X connect 14 0 2 0;
#X connect 14 0 2 1;
#X connect 15 0 24 0;
#X connect 16 0 15 0;
#X connect 17 0 18 0;
#X connect 18 0 23 0;
#X connect 19 0 22 0;
#X connect 19 0 15 0;
#X connect 20 0 21 0;
#X connect 21 0 22 1;
#X connect 22 0 15 0;
#X connect 23 0 19 0;
#X connect 23 1 20 0;
