#N canvas 462 196 1250 674 10;
#X obj 310 571 s~ \$0freq;
#X obj 310 538 mtof~;
#X obj 27 491 *~ 0.1;
#X obj 229 401 s \$0trigger;
#X msg 309 300 0;
#X msg 335 300 2;
#X msg 366 300 4;
#X msg 396 300 6;
#X msg 426 300 8;
#X obj 27 426 +~;
#X obj 310 505 +~;
#X obj 376 517 osc~ 7;
#X obj 376 550 *~ 0.1;
#X obj 27 289 fm-op-2 /2 \$0;
#X obj 137 155 fm-op-2 /3 \$0;
#X msg 456 300 10;
#X obj 309 242 random 6;
#X msg 486 300 12;
#X obj 309 267 sel 0 1 2 3 4 5;
#X obj 349 399 random 3;
#X obj 349 472 * 12;
#X obj 310 475 +;
#X text 133 321 <- modulate me;
#X obj 309 333 +;
#X obj 416 427 hradio 10 1 0 8 empty empty empty 0 -8 0 10 -262144
-1 -1 0;
#X obj 416 447 hradio 10 1 0 8 empty empty empty 0 -8 0 10 -262144
-1 -1 3;
#X obj 349 430 +;
#X obj 801 17 sssad-gui \$0;
#X obj 510 440 sssad /octave-range \$0;
#X obj 510 470 sssad /octave-base \$0;
#X obj 309 366 t b a b;
#X obj 368 34 inlet;
#X obj 27 15 fm-op-2 /0 \$0;
#X msg 801 125 \; \$1-SSSAD /1/e 0 \; \$1-SSSAD /1/d 341.772 \; \$1-SSSAD
/1/a 113.924 \; \$1-SSSAD /1/m 354.43 \; \$1-SSSAD /1/r 1 \; \$1-SSSAD
/0/e 0 \; \$1-SSSAD /0/d 0 \; \$1-SSSAD /0/a 101.266 \; \$1-SSSAD /0/r
7 \; \$1-SSSAD /octave-base 3 \; \$1-SSSAD /3/e 0.101266 \; \$1-SSSAD
/3/d 227.848 \; \$1-SSSAD /3/a 63.2911 \; \$1-SSSAD /3/m 0 \; \$1-SSSAD
/3/r 1 \; \$1-SSSAD /2/e 0 \; \$1-SSSAD /2/d 126.582 \; \$1-SSSAD /2/a
0 \; \$1-SSSAD /2/m 1474 \; \$1-SSSAD /2/r 0 \; \$1-SSSAD_ADMIN set
\;;
#X obj 570 207 prepent \$0;
#X obj 570 181 list append;
#X obj 368 61 t b b a;
#X msg 570 243 \; \$1-SSSAD /2/m \$2 \; \$1-SSSAD /octave-base \$3
\; \$1-SSSAD_ADMIN set;
#X obj 27 152 fm-op-2 /1 \$0;
#X obj 913 49 loadbang;
#X obj 913 78 \$0;
#X obj 28 548 throw~ laser;
#X obj 648 84 + 0;
#X obj 570 107 random 4000;
#X obj 1032 66 r \$0-SSSAD;
#X obj 1033 125 t b;
#X connect 1 0 0 0;
#X connect 2 0 41 0;
#X connect 4 0 23 0;
#X connect 5 0 23 0;
#X connect 6 0 23 0;
#X connect 7 0 23 0;
#X connect 8 0 23 0;
#X connect 9 0 2 0;
#X connect 10 0 1 0;
#X connect 11 0 12 0;
#X connect 12 0 10 1;
#X connect 13 0 9 0;
#X connect 14 0 13 0;
#X connect 15 0 23 0;
#X connect 16 0 18 0;
#X connect 17 0 23 0;
#X connect 18 0 4 0;
#X connect 18 1 5 0;
#X connect 18 2 6 0;
#X connect 18 3 7 0;
#X connect 18 4 8 0;
#X connect 18 5 15 0;
#X connect 18 5 17 0;
#X connect 19 0 26 0;
#X connect 20 0 21 1;
#X connect 21 0 10 0;
#X connect 23 0 30 0;
#X connect 24 0 19 1;
#X connect 24 0 28 1;
#X connect 25 0 26 1;
#X connect 25 0 29 1;
#X connect 26 0 20 0;
#X connect 27 0 33 0;
#X connect 28 0 24 0;
#X connect 29 0 25 0;
#X connect 30 0 3 0;
#X connect 30 1 21 0;
#X connect 30 2 19 0;
#X connect 31 0 36 0;
#X connect 32 0 9 1;
#X connect 32 0 38 0;
#X connect 34 0 37 0;
#X connect 35 0 34 0;
#X connect 36 0 16 0;
#X connect 36 1 43 0;
#X connect 36 2 42 0;
#X connect 38 0 13 0;
#X connect 39 0 40 0;
#X connect 40 0 33 0;
#X connect 42 0 35 1;
#X connect 43 0 35 0;
#X connect 44 0 45 0;
#X connect 45 0 27 0;
