#N canvas 430 196 1250 674 10;
#X obj 310 571 s~ \$0freq;
#X obj 310 538 mtof~;
#X obj 27 491 *~ 0.1;
#X obj 229 401 s \$0trigger;
#X obj 27 426 +~;
#X obj 310 505 +~;
#X obj 376 517 osc~ 7;
#X obj 376 550 *~ 0.1;
#X obj 27 289 fm-op-2 /2 \$0;
#X obj 137 155 fm-op-2 /3 \$0;
#X text 133 321 <- modulate me;
#X obj 801 17 sssad-gui \$0;
#X obj 368 34 inlet;
#X obj 27 15 fm-op-2 /0 \$0;
#X msg 801 125 \; \$1-SSSAD /3/e 0.101266 \; \$1-SSSAD /3/d 227.848
\; \$1-SSSAD /3/a 63.2911 \; \$1-SSSAD /3/m 0 \; \$1-SSSAD /3/r 1 \;
\$1-SSSAD /2/e 0 \; \$1-SSSAD /2/d 126.582 \; \$1-SSSAD /2/a 0 \; \$1-SSSAD
/2/m 1474 \; \$1-SSSAD /2/r 0 \; \$1-SSSAD_ADMIN set \;;
#X obj 570 207 prepent \$0;
#X obj 570 181 list append;
#X msg 570 243 \; \$1-SSSAD /2/m \$2 \; \$1-SSSAD /octave-base \$3
\; \$1-SSSAD_ADMIN set;
#X obj 27 152 fm-op-2 /1 \$0;
#X obj 913 49 loadbang;
#X obj 913 78 \$0;
#X obj 28 548 throw~ laser;
#X obj 648 84 + 0;
#X obj 570 107 random 4000;
#X obj 1032 66 r \$0-SSSAD;
#X obj 1033 125 t b;
#X obj 309 366 t b a;
#X connect 1 0 0 0;
#X connect 2 0 21 0;
#X connect 4 0 2 0;
#X connect 5 0 1 0;
#X connect 6 0 7 0;
#X connect 7 0 5 1;
#X connect 8 0 4 0;
#X connect 9 0 8 0;
#X connect 11 0 14 0;
#X connect 12 0 26 0;
#X connect 13 0 4 1;
#X connect 13 0 18 0;
#X connect 15 0 17 0;
#X connect 16 0 15 0;
#X connect 18 0 8 0;
#X connect 19 0 20 0;
#X connect 20 0 14 0;
#X connect 22 0 16 1;
#X connect 23 0 16 0;
#X connect 24 0 25 0;
#X connect 26 0 3 0;
#X connect 26 1 5 0;
