#N canvas 348 134 956 809 10;
#X obj 6 12 bl-init.mmb;
#X obj 148 452 bl-asymtri.mmb~;
#X obj 248 563 *~ 0.1;
#X obj 248 624 dac~;
#X obj 248 452 bl-asymtri.mmb~;
#X obj 291 352 phasor~ 5;
#X obj 358 452 bl-asymtri.mmb~;
#X obj 401 352 phasor~ 7;
#X obj 191 399 +~ 0.01;
#X obj 191 352 phasor~ 3;
#X obj 48 452 bl-asymtri.mmb~;
#X obj 91 399 +~ 0.01;
#X obj 91 352 phasor~ 1;
#X obj 291 399 +~ 0.01;
#X obj 401 399 +~ 0.01;
#X msg 248 140 0;
#X msg 279 140 2;
#X msg 309 140 -2;
#X msg 339 140 3;
#X msg 369 140 5;
#X msg 399 140 7;
#X obj 248 103 sel 0 1 2 3 4 5 6 7;
#X obj 248 78 random 5;
#X obj 248 28 tgl 15 0 empty empty empty 17 7 0 10 -262144 -1 -1 1
1;
#X obj 248 252 vline~;
#X obj 248 277 mtof~;
#X obj 48 399 *~ 0.5;
#X obj 248 426 *~ 2;
#X obj 358 426 *~ 3;
#X obj 248 53 metro 1000;
#X msg 248 219 \$1 300;
#X obj 358 515 *~;
#X obj 248 515 *~;
#X obj 288 624 delwrite~ \$0del 1000;
#X obj 191 720 delread4~ \$0del;
#X obj 191 664 osc~ 0.1;
#X obj 301 720 delread4~ \$0del;
#X obj 301 664 osc~ 0.13;
#X obj 491 541 random 100;
#X obj 491 559 / 100;
#X obj 491 595 vline~;
#X obj 491 523 metro 500;
#X msg 491 487 500;
#X obj 491 505 t b f;
#X obj 491 577 list append;
#X obj 401 541 random 100;
#X obj 401 559 / 100;
#X obj 401 595 vline~;
#X obj 401 523 metro 500;
#X msg 401 487 500;
#X obj 401 505 t b f;
#X obj 401 577 list append;
#X obj 121 551 random 100;
#X obj 121 569 / 100;
#X obj 121 605 vline~;
#X obj 121 533 metro 500;
#X msg 121 497 500;
#X obj 121 515 t b f;
#X obj 121 587 list append;
#X obj 198 515 *~;
#X obj 191 692 +~ 100;
#X obj 301 692 +~ 100;
#X obj 248 184 + 48;
#X obj 547 470 loadbang;
#X connect 1 0 59 0;
#X connect 2 0 3 0;
#X connect 2 0 3 1;
#X connect 2 0 33 0;
#X connect 4 0 32 0;
#X connect 5 0 13 0;
#X connect 6 0 31 0;
#X connect 7 0 14 0;
#X connect 8 0 1 1;
#X connect 9 0 8 0;
#X connect 10 0 2 0;
#X connect 11 0 10 1;
#X connect 12 0 11 0;
#X connect 13 0 4 1;
#X connect 14 0 6 1;
#X connect 15 0 62 0;
#X connect 16 0 62 0;
#X connect 17 0 62 0;
#X connect 18 0 62 0;
#X connect 19 0 62 0;
#X connect 20 0 62 0;
#X connect 21 0 15 0;
#X connect 21 1 16 0;
#X connect 21 2 17 0;
#X connect 21 3 18 0;
#X connect 21 4 19 0;
#X connect 21 5 20 0;
#X connect 22 0 21 0;
#X connect 23 0 29 0;
#X connect 24 0 25 0;
#X connect 25 0 26 0;
#X connect 25 0 1 0;
#X connect 25 0 27 0;
#X connect 25 0 28 0;
#X connect 26 0 10 0;
#X connect 27 0 4 0;
#X connect 28 0 6 0;
#X connect 29 0 22 0;
#X connect 30 0 24 0;
#X connect 31 0 2 0;
#X connect 32 0 2 0;
#X connect 34 0 3 0;
#X connect 35 0 60 0;
#X connect 36 0 3 1;
#X connect 37 0 61 0;
#X connect 38 0 39 0;
#X connect 39 0 44 0;
#X connect 40 0 31 1;
#X connect 41 0 38 0;
#X connect 42 0 43 0;
#X connect 43 0 41 0;
#X connect 43 1 41 1;
#X connect 43 1 44 1;
#X connect 44 0 40 0;
#X connect 45 0 46 0;
#X connect 46 0 51 0;
#X connect 47 0 32 1;
#X connect 48 0 45 0;
#X connect 49 0 50 0;
#X connect 50 0 48 0;
#X connect 50 1 48 1;
#X connect 50 1 51 1;
#X connect 51 0 47 0;
#X connect 52 0 53 0;
#X connect 53 0 58 0;
#X connect 54 0 59 1;
#X connect 55 0 52 0;
#X connect 56 0 57 0;
#X connect 57 0 55 0;
#X connect 57 1 55 1;
#X connect 57 1 58 1;
#X connect 58 0 54 0;
#X connect 59 0 2 0;
#X connect 60 0 34 0;
#X connect 61 0 36 0;
#X connect 62 0 30 0;
#X connect 63 0 42 0;
#X connect 63 0 49 0;
#X connect 63 0 56 0;
