#N canvas 0 53 1246 753 10;
#X msg 272 86 1000;
#X obj 162 90 + 40;
#X obj 252 8 bng 15 250 50 0 empty empty empty 17 7 0 10 -262144 -1
-1;
#X obj 272 108 s \$0accel;
#X obj 162 109 s \$0speed;
#X obj 45 365 mtof~;
#X obj 45 345 line~;
#X obj 45 319 list append;
#X obj 108 297 r \$0accel;
#X obj 45 209 r \$0speed;
#X obj 162 69 random 30;
#X obj 537 478 osc~;
#X msg 402 45 0 3 7;
#X obj 344 108 s \$0chord;
#X obj 81 268 list-idx 0;
#X obj 81 247 r \$0chord;
#X obj 45 267 +;
#X obj 175 365 mtof~;
#X obj 175 345 line~;
#X obj 175 319 list append;
#X obj 238 297 r \$0accel;
#X obj 175 209 r \$0speed;
#X obj 211 247 r \$0chord;
#X obj 175 267 +;
#X obj 305 365 mtof~;
#X obj 305 345 line~;
#X obj 305 319 list append;
#X obj 368 297 r \$0accel;
#X obj 305 209 r \$0speed;
#X obj 341 247 r \$0chord;
#X obj 305 267 +;
#X obj 211 268 list-idx 1;
#X obj 341 268 list-idx 2;
#X msg 573 476 1 10 \, 0 100 10;
#X obj 574 506 vline~;
#X obj 537 540 *~;
#X obj 992 106 loadbang;
#X obj 992 131 tgl 15 0 empty empty empty 17 7 0 10 -262144 -1 -1 1
1;
#X obj 1022 175 + 1;
#X obj 1052 175 % 3;
#X obj 992 175 i;
#X obj 992 203 sel 0 1 2;
#X obj 537 452 mtof~;
#X obj 537 432 line~;
#X obj 537 406 list append;
#X obj 600 384 r \$0accel;
#X obj 537 246 r \$0speed;
#X obj 573 355 list-idx 0;
#X obj 573 334 r \$0chord;
#X obj 537 354 +;
#X obj 707 478 osc~;
#X msg 744 476 1 10 \, 0 100 10;
#X obj 744 506 vline~;
#X obj 707 540 *~;
#X obj 707 452 mtof~;
#X obj 707 432 line~;
#X obj 707 406 list append;
#X obj 770 384 r \$0accel;
#X obj 707 246 r \$0speed;
#X obj 743 334 r \$0chord;
#X obj 707 354 +;
#X obj 743 355 list-idx 1;
#X obj 867 478 osc~;
#X msg 904 476 1 10 \, 0 100 10;
#X obj 904 506 vline~;
#X obj 867 540 *~;
#X obj 867 452 mtof~;
#X obj 867 432 line~;
#X obj 867 406 list append;
#X obj 930 384 r \$0accel;
#X obj 867 246 r \$0speed;
#X obj 903 334 r \$0chord;
#X obj 867 354 +;
#X obj 903 355 list-idx 2;
#X obj 363 517 catch~ \$0arp;
#X obj 363 549 *~;
#X obj 265 517 catch~ \$0motor;
#X obj 45 449 throw~ \$0motor;
#X obj 175 449 throw~ \$0motor;
#X obj 305 449 throw~ \$0motor;
#X obj 537 576 throw~ \$0arp;
#X obj 707 576 throw~ \$0arp;
#X obj 867 576 throw~ \$0arp;
#X obj 395 550 tgl 15 0 empty empty empty 17 7 0 10 -262144 -1 -1 1
1;
#X obj 537 282 + 12;
#X obj 707 282 + 12;
#X obj 867 282 + 12;
#X obj 265 575 *~ 0.5;
#X obj 992 155 metro 75;
#X obj 1050 90 list append;
#X obj 1080 67 r \$0accel;
#X obj 1050 116 line;
#X obj 1050 67 -;
#X msg 1050 45 100 \$1;
#X obj 1050 24 r \$0speed;
#X obj 344 86 list;
#X obj 483 45 loadbang;
#X obj 252 36 t b b b;
#X msg 412 65 0 5 9;
#X text 274 8 <- PEDAL TO THE FLOOR;
#X obj 421 559 loadbang;
#X obj 661 68 inlet;
#X obj 661 93 * 2;
#X obj 661 118 min 1;
#X obj 661 139 max 0;
#X obj 661 204 s \$0speed;
#X obj 721 85 loadbang;
#X obj 721 126 s \$0accel;
#X msg 721 106 10;
#X obj 305 391 bltriangle~;
#X obj 175 391 bltriangle~;
#X obj 45 391 bltriangle~;
#X obj 366 601 r enable-voices;
#X obj 366 689 vline~;
#X msg 366 670 \$1 10;
#X obj 366 647 * 0.1;
#X obj 265 603 *~;
#X obj 366 626 > \$1;
#X text 686 185 lowest speed;
#X text 690 160 max speed;
#X obj 819 63 loadbang;
#X obj 819 84 \$1;
#X obj 809 136 + 10;
#X obj 839 136 + 40;
#X text 815 39 each ship has different pitch range;
#X obj 661 161 *;
#X obj 661 183 +;
#X obj 266 715 throw~ engine;
#X obj 819 103 * 2;
#X connect 0 0 3 0;
#X connect 1 0 4 0;
#X connect 2 0 97 0;
#X connect 5 0 111 0;
#X connect 6 0 5 0;
#X connect 7 0 6 0;
#X connect 8 0 7 1;
#X connect 9 0 16 0;
#X connect 10 0 1 0;
#X connect 11 0 35 0;
#X connect 12 0 95 0;
#X connect 14 0 16 1;
#X connect 15 0 14 0;
#X connect 16 0 7 0;
#X connect 17 0 110 0;
#X connect 18 0 17 0;
#X connect 19 0 18 0;
#X connect 20 0 19 1;
#X connect 21 0 23 0;
#X connect 22 0 31 0;
#X connect 23 0 19 0;
#X connect 24 0 109 0;
#X connect 25 0 24 0;
#X connect 26 0 25 0;
#X connect 27 0 26 1;
#X connect 28 0 30 0;
#X connect 29 0 32 0;
#X connect 30 0 26 0;
#X connect 31 0 23 1;
#X connect 32 0 30 1;
#X connect 33 0 34 0;
#X connect 34 0 35 1;
#X connect 35 0 80 0;
#X connect 36 0 37 0;
#X connect 37 0 88 0;
#X connect 38 0 39 0;
#X connect 39 0 40 1;
#X connect 40 0 38 0;
#X connect 40 0 41 0;
#X connect 41 0 33 0;
#X connect 41 1 51 0;
#X connect 41 2 63 0;
#X connect 42 0 11 0;
#X connect 43 0 42 0;
#X connect 44 0 43 0;
#X connect 45 0 44 1;
#X connect 46 0 84 0;
#X connect 47 0 49 1;
#X connect 48 0 47 0;
#X connect 49 0 44 0;
#X connect 50 0 53 0;
#X connect 51 0 52 0;
#X connect 52 0 53 1;
#X connect 53 0 81 0;
#X connect 54 0 50 0;
#X connect 55 0 54 0;
#X connect 56 0 55 0;
#X connect 57 0 56 1;
#X connect 58 0 85 0;
#X connect 59 0 61 0;
#X connect 60 0 56 0;
#X connect 61 0 60 1;
#X connect 62 0 65 0;
#X connect 63 0 64 0;
#X connect 64 0 65 1;
#X connect 65 0 82 0;
#X connect 66 0 62 0;
#X connect 67 0 66 0;
#X connect 68 0 67 0;
#X connect 69 0 68 1;
#X connect 70 0 86 0;
#X connect 71 0 73 0;
#X connect 72 0 68 0;
#X connect 73 0 72 1;
#X connect 74 0 75 0;
#X connect 75 0 116 0;
#X connect 76 0 87 0;
#X connect 83 0 75 1;
#X connect 84 0 49 0;
#X connect 85 0 60 0;
#X connect 86 0 72 0;
#X connect 87 0 116 0;
#X connect 88 0 40 0;
#X connect 89 0 91 0;
#X connect 90 0 89 1;
#X connect 91 0 88 1;
#X connect 92 0 89 0;
#X connect 93 0 92 0;
#X connect 94 0 93 0;
#X connect 95 0 13 0;
#X connect 96 0 98 0;
#X connect 97 0 10 0;
#X connect 97 1 0 0;
#X connect 97 2 95 0;
#X connect 98 0 95 0;
#X connect 100 0 83 0;
#X connect 101 0 102 0;
#X connect 102 0 103 0;
#X connect 103 0 104 0;
#X connect 104 0 125 0;
#X connect 106 0 108 0;
#X connect 108 0 107 0;
#X connect 109 0 79 0;
#X connect 110 0 78 0;
#X connect 111 0 77 0;
#X connect 112 0 117 0;
#X connect 113 0 116 1;
#X connect 114 0 113 0;
#X connect 115 0 114 0;
#X connect 116 0 127 0;
#X connect 117 0 115 0;
#X connect 120 0 121 0;
#X connect 121 0 128 0;
#X connect 122 0 125 1;
#X connect 123 0 126 1;
#X connect 125 0 126 0;
#X connect 126 0 105 0;
#X connect 128 0 122 0;
#X connect 128 0 123 0;
