#N canvas 0 22 807 492 10;
#X obj 310 309 list trim;
#X msg 289 83 save;
#X obj 348 100 bng 15 250 50 0 empty empty restore 17 7 0 10 -262144
-1 -1;
#X msg 417 284 set \, addsemi;
#X obj 348 76 loadbang;
#X msg 372 310 adddollsym 1-SSSAD;
#X obj 310 283 list prepend add;
#X obj 310 257 t a b;
#X obj 350 396 outlet;
#X obj 510 311 \$1;
#X obj 104 121 bng 15 250 50 0 empty empty save 17 7 0 10 -262144 -1
-1;
#X obj 104 141 bng 15 250 50 0 empty empty restore 17 7 0 10 -262144
-1 -1;
#X obj 310 175 s \$1-SSSAD_ADMIN;
#X obj 310 205 r \$1-SSSAD_ADMIN;
#X msg 287 340 adddollsym 1-SSSAD_ADMIN \, add set;
#X obj 289 109 t b a b;
#X obj 310 230 route persist;
#X obj 289 31 inlet;
#X connect 0 0 8 0;
#X connect 1 0 15 0;
#X connect 2 0 9 0;
#X connect 3 0 8 0;
#X connect 4 0 2 0;
#X connect 5 0 8 0;
#X connect 6 0 0 0;
#X connect 7 0 6 0;
#X connect 7 1 5 0;
#X connect 9 0 8 0;
#X connect 10 0 1 0;
#X connect 11 0 2 0;
#X connect 13 0 16 0;
#X connect 14 0 8 0;
#X connect 15 0 14 0;
#X connect 15 1 12 0;
#X connect 15 2 3 0;
#X connect 16 0 7 0;
#X connect 17 0 1 0;
#X coords 0 -1 1 1 85 60 1 100 100;
