#N canvas 0 22 572 453 10;
#X obj 290 309 list trim;
#X msg 289 83 save;
#X obj 348 100 bng 15 250 50 0 empty empty restore 17 7 0 10 -262144
-1 -1;
#X msg 397 284 set \, addsemi;
#X msg 348 144 set;
#X obj 289 109 t a b;
#X obj 290 230 route persist;
#X obj 348 119 t b b;
#X obj 348 76 loadbang;
#X msg 352 310 adddollsym 1-SSSAD;
#X obj 290 283 list prepend add;
#X obj 290 257 t a b;
#X obj 350 396 outlet;
#X obj 490 311 \$1;
#X obj 104 121 bng 15 250 50 0 empty empty save 17 7 0 10 -262144 -1
-1;
#X obj 104 141 bng 15 250 50 0 empty empty restore 17 7 0 10 -262144
-1 -1;
#X obj 290 175 s \$1-SSSAD_ADMIN;
#X obj 290 205 r \$1-SSSAD_ADMIN;
#X connect 0 0 12 0;
#X connect 1 0 5 0;
#X connect 2 0 7 0;
#X connect 3 0 12 0;
#X connect 4 0 16 0;
#X connect 5 0 16 0;
#X connect 5 1 3 0;
#X connect 6 0 11 0;
#X connect 7 0 4 0;
#X connect 7 1 13 0;
#X connect 8 0 2 0;
#X connect 9 0 12 0;
#X connect 10 0 0 0;
#X connect 11 0 10 0;
#X connect 11 1 9 0;
#X connect 13 0 12 0;
#X connect 14 0 1 0;
#X connect 15 0 7 0;
#X connect 17 0 6 0;
#X coords 0 -1 1 1 85 60 1 100 100;
