#N canvas 531 190 537 531 10;
#X obj 219 347 bob~, f 11;
#X obj 29 225 blsaw~;
#X obj 250 239 vline~;
#X obj 321 322 hradio 15 1 0 8 empty empty empty 0 -8 0 10 -262144
-1 -1 1;
#X obj 29 199 mtof;
#X msg 250 202 3000 1000 \, 0 1000 1000;
#X obj 79 225 blsaw~;
#X obj 79 199 mtof;
#X obj 79 176 * 0.999;
#X obj 139 225 blsaw~;
#X obj 139 199 mtof;
#X obj 139 176 * 1.001;
#X obj 79 23 inlet;
#X obj 79 74 t a;
#X obj 219 423 outlet~;
#X obj 79 46 unpack f f, f 25;
#X obj 219 401 *~;
#X obj 273 40 random 1000;
#X obj 273 67 / 2000;
#X obj 321 346 sig~ 2;
#X obj 325 127 vline~;
#X msg 325 104 1 1000 \, 0 100 1000;
#X obj 276 128 osc~ 7;
#X obj 276 151 *~ 0.1;
#X connect 0 0 16 0;
#X connect 1 0 0 0;
#X connect 2 0 0 1;
#X connect 3 0 19 0;
#X connect 4 0 1 0;
#X connect 5 0 2 0;
#X connect 6 0 0 0;
#X connect 7 0 6 0;
#X connect 8 0 7 0;
#X connect 9 0 0 0;
#X connect 10 0 9 0;
#X connect 11 0 10 0;
#X connect 12 0 15 0;
#X connect 13 0 5 0;
#X connect 13 0 11 0;
#X connect 13 0 8 0;
#X connect 13 0 4 0;
#X connect 15 0 13 0;
#X connect 15 1 16 1;
#X connect 16 0 14 0;
#X connect 17 0 18 0;
#X connect 19 0 0 2;
#X connect 21 0 20 0;
#X connect 22 0 23 0;
