#N canvas 531 190 496 455 10;
#X obj 219 347 bob~, f 11;
#X obj 29 195 blsaw~;
#X obj 250 239 vline~;
#X obj 321 322 hradio 15 1 0 8 empty empty empty 0 -8 0 10 -262144
-1 -1 1;
#X obj 29 169 mtof;
#X msg 250 112 3000 1000 \, 0 1000 1000;
#X obj 79 195 blsaw~;
#X obj 79 169 mtof;
#X obj 79 146 * 0.999;
#X obj 139 195 blsaw~;
#X obj 139 169 mtof;
#X obj 139 146 * 1.001;
#X obj 219 371 +~;
#X obj 321 346 sig~ 1;
#X obj 79 43 inlet;
#X obj 79 74 t a;
#X obj 219 393 outlet~;
#X connect 0 0 12 0;
#X connect 1 0 0 0;
#X connect 2 0 0 1;
#X connect 3 0 13 0;
#X connect 4 0 1 0;
#X connect 5 0 2 0;
#X connect 6 0 0 0;
#X connect 7 0 6 0;
#X connect 8 0 7 0;
#X connect 9 0 0 0;
#X connect 10 0 9 0;
#X connect 11 0 10 0;
#X connect 12 0 16 0;
#X connect 13 0 0 2;
#X connect 14 0 15 0;
#X connect 15 0 5 0;
#X connect 15 0 11 0;
#X connect 15 0 8 0;
#X connect 15 0 4 0;
