#N canvas 531 190 537 531 10;
#X obj 219 347 bob~, f 11;
#X obj 29 245 blsaw~;
#X obj 250 239 vline~;
#X obj 321 322 hradio 15 1 0 8 empty empty empty 0 -8 0 10 -262144
-1 -1 1;
#X obj 79 245 blsaw~;
#X obj 139 245 blsaw~;
#X obj 79 23 inlet;
#X obj 219 423 outlet~;
#X obj 79 46 unpack f f, f 25;
#X obj 219 401 *~;
#X obj 273 40 random 1000;
#X obj 325 127 vline~;
#X obj 276 128 osc~ 7;
#X obj 162 21 b;
#X obj 79 114 +~;
#X obj 79 196 *~ 0.999;
#X obj 139 196 *~ 1.001;
#X obj 79 219 mtof~;
#X obj 139 219 mtof~;
#X obj 29 219 mtof~;
#X obj 79 80 sig~;
#X msg 325 104 \$1 1000 \, 0 100 1000;
#X obj 276 178 *~;
#X obj 276 151 *~ 0.2;
#X obj 119 85 r~ pitchbend;
#X obj 321 346 sig~ 1;
#X obj 273 67 / 1000;
#X msg 250 202 3000 1000 \, 0 2000 1000;
#X connect 0 0 9 0;
#X connect 1 0 0 0;
#X connect 2 0 0 1;
#X connect 3 0 25 0;
#X connect 4 0 0 0;
#X connect 5 0 0 0;
#X connect 6 0 8 0;
#X connect 6 0 13 0;
#X connect 8 0 20 0;
#X connect 8 1 9 1;
#X connect 9 0 7 0;
#X connect 10 0 26 0;
#X connect 11 0 22 1;
#X connect 12 0 23 0;
#X connect 13 0 10 0;
#X connect 13 0 27 0;
#X connect 14 0 15 0;
#X connect 14 0 16 0;
#X connect 14 0 19 0;
#X connect 15 0 17 0;
#X connect 16 0 18 0;
#X connect 17 0 4 0;
#X connect 18 0 5 0;
#X connect 19 0 1 0;
#X connect 20 0 14 0;
#X connect 21 0 11 0;
#X connect 22 0 14 1;
#X connect 23 0 22 0;
#X connect 24 0 14 1;
#X connect 25 0 0 2;
#X connect 26 0 21 0;
#X connect 27 0 2 0;
