#N canvas 1055 22 709 393 10;
#X floatatom 512 102 0 0 0 0 - - -;
#X obj 512 127 * 100;
#X obj 398 157 mtof;
#X floatatom 398 102 0 0 0 0 - - -;
#X text 550 92 duration in tenths;
#X text 552 108 of a second;
#X text 426 101 pitch;
#X obj 398 47 loadbang;
#X msg 398 70 72;
#X msg 512 72 40;
#X obj 289 209 bng 25 250 50 0 empty empty empty 0 -6 0 8 -262144 -1
-1;
#X text 322 211 <-- click to play a note;
#X obj 40 311 catch~ \$0sum;
#X obj 40 356 outlet~;
#X obj 289 245 s \$0trigger;
#X obj 398 182 s \$0frequency;
#X obj 512 152 s \$0duration;
#X obj 39 279 bell-partial 1.33 0.075 4.07 0 \$0;
#X obj 39 254 bell-partial 1 0.1 3.76 0 \$0;
#X obj 39 229 bell-partial 1.33 0.15 3 0 \$0;
#X obj 39 204 bell-partial 1.33 0.2 2.74 0 \$0;
#X obj 39 179 bell-partial 1.46 0.25 2 0 \$0;
#X obj 39 154 bell-partial 1.67 0.35 1.7 0 \$0;
#X obj 39 129 bell-partial 2.67 0.325 1.19 0 \$0;
#X obj 39 104 bell-partial 1.8 0.55 0.92 1.7 \$0;
#X obj 39 79 bell-partial 1 0.65 0.92 0 \$0;
#X obj 39 54 bell-partial 0.67 0.9 0.56 1 \$0;
#X obj 39 29 bell-partial 1 1 0.56 0 \$0;
#X obj 556 39 r bell-duration;
#X obj 311 128 t b a;
#X obj 301 55 inlet;
#X connect 0 0 1 0;
#X connect 1 0 16 0;
#X connect 2 0 15 0;
#X connect 3 0 2 0;
#X connect 7 0 8 0;
#X connect 7 0 9 0;
#X connect 8 0 3 0;
#X connect 9 0 0 0;
#X connect 10 0 14 0;
#X connect 12 0 13 0;
#X connect 28 0 0 0;
#X connect 29 0 14 0;
#X connect 29 1 2 0;
#X connect 30 0 29 0;
