#N canvas 615 22 622 394 10;
#X obj 133 97 noise~;
#X obj 198 169 vline~;
#X obj 216 289 vline~;
#X obj 198 191 *~;
#X obj 198 213 *~ 1000;
#X obj 218 314 *~;
#X obj 173 304 *~;
#X msg 263 168 0 \, 1 10 \, 0 10 100;
#X obj 173 252 vcf~ 4;
#X obj 267 10 tgl 15 0 empty empty empty 17 7 0 10 -262144 -1 -1 0
1;
#X obj 227 80 sel 0 1;
#X msg 229 107 1 0;
#X msg 259 107 0 1;
#X msg 193 138 \$1 \, \$2 100;
#X obj 315 15 inlet;
#X obj 316 45 t b a;
#X obj 173 361 outlet~;
#X connect 0 0 8 0;
#X connect 1 0 3 0;
#X connect 1 0 3 1;
#X connect 2 0 5 0;
#X connect 2 0 5 1;
#X connect 3 0 4 0;
#X connect 4 0 8 1;
#X connect 5 0 6 1;
#X connect 6 0 16 0;
#X connect 7 0 2 0;
#X connect 8 0 6 0;
#X connect 9 0 15 0;
#X connect 10 0 11 0;
#X connect 10 1 12 0;
#X connect 11 0 13 0;
#X connect 12 0 13 0;
#X connect 13 0 1 0;
#X connect 14 0 15 0;
#X connect 15 0 7 0;
#X connect 15 1 10 0;
