#N canvas 19 22 1592 1002 10;
#X obj 57 353 keypiano;
#N canvas 776 73 480 427 note-run 0;
#X obj 152 273 t a;
#X obj 67 222 f;
#X obj 102 222 + 1;
#X obj 138 142 random 2;
#X obj 138 164 sel 0 1;
#X msg 310 179 0;
#X obj 67 273 list prepend;
#X obj 66 125 until;
#X obj 41 22 inlet;
#X text 117 28 generates a sequence of N items increasing by 1 or 2
each time;
#X obj 64 158 t b b;
#X obj 40 309 list;
#X obj 41 57 t b b b;
#X obj 346 178 t b;
#X obj 40 343 outlet;
#X msg 138 193 1;
#X msg 178 193 2;
#X msg 66 93 3;
#X connect 0 0 6 1;
#X connect 1 0 2 0;
#X connect 1 0 6 0;
#X connect 2 0 1 1;
#X connect 3 0 4 0;
#X connect 4 0 15 0;
#X connect 4 1 16 0;
#X connect 5 0 1 1;
#X connect 6 0 0 0;
#X connect 6 0 11 1;
#X connect 7 0 10 0;
#X connect 8 0 12 0;
#X connect 10 0 1 0;
#X connect 10 1 3 0;
#X connect 11 0 14 0;
#X connect 12 0 11 0;
#X connect 12 1 17 0;
#X connect 12 2 13 0;
#X connect 13 0 5 0;
#X connect 13 0 6 1;
#X connect 15 0 2 1;
#X connect 16 0 2 1;
#X connect 17 0 7 0;
#X restore 163 134 pd note-run;
#X obj 263 76 bng 15 250 50 0 empty empty empty 17 7 0 10 -262144 -1
-1;
#X obj 163 206 list-map;
#X obj 254 121 random 3;
#X obj 254 144 + 4;
#X obj 163 104 t b b;
#X obj 263 29 tgl 15 0 empty empty empty 17 7 0 10 -262144 -1 -1 0
1;
#X obj 855 401 hsl 128 15 0 127 0 0 strum-length empty strum-length
-2 -8 0 10 -262144 -1 -1 0 1;
#X obj 855 451 hsl 128 15 0.97 0.99 0 0 string-duration empty string-duration
-2 -8 0 10 -262144 -1 -1 0 1;
#N canvas 16 380 450 323 little-tune 0;
#X obj 32 76 metro 250;
#X obj 32 192 list-idx;
#X msg 32 158 0 3 5 7 9;
#X obj 32 127 t b b;
#X obj 111 157 random 5;
#X obj 32 45 tgl 15 0 empty empty empty 17 7 0 10 -262144 -1 -1 0 1
;
#X obj 32 101 t b b;
#X obj 202 192 list-idx;
#X msg 202 158 0 3 5 7 9;
#X obj 202 127 t b b;
#X obj 281 157 random 5;
#X obj 202 76 metro 500;
#X obj 202 225 + 60;
#X obj 32 225 + 48;
#X obj 362 192 list-idx;
#X msg 362 158 0 3 5 7 9;
#X obj 362 127 t b b;
#X obj 441 157 random 5;
#X obj 362 225 + 72;
#X obj 202 297 outlet;
#X obj 32 13 inlet;
#X obj 275 39 tgl 15 0 empty empty empty 17 7 0 10 -262144 -1 -1 0
1;
#X obj 362 102 spigot;
#X obj 362 76 metro 166.666;
#X connect 0 0 6 0;
#X connect 1 0 13 0;
#X connect 2 0 1 0;
#X connect 3 0 2 0;
#X connect 3 1 4 0;
#X connect 4 0 1 1;
#X connect 5 0 0 0;
#X connect 5 0 11 0;
#X connect 5 0 23 0;
#X connect 6 0 3 0;
#X connect 6 1 3 0;
#X connect 7 0 12 0;
#X connect 8 0 7 0;
#X connect 9 0 8 0;
#X connect 9 1 10 0;
#X connect 10 0 7 1;
#X connect 11 0 9 0;
#X connect 12 0 19 0;
#X connect 13 0 19 0;
#X connect 14 0 18 0;
#X connect 15 0 14 0;
#X connect 16 0 15 0;
#X connect 16 1 17 0;
#X connect 17 0 14 1;
#X connect 18 0 19 0;
#X connect 20 0 5 0;
#X connect 21 0 22 1;
#X connect 22 0 16 0;
#X connect 23 0 22 0;
#X coords 0 -1 1 1 77 44 1 264 17;
#X restore 57 303 pd little-tune;
#X obj 57 279 tgl 15 0 empty empty empty 17 7 0 10 -262144 -1 -1 0
1;
#X obj 855 501 hsl 128 15 0 2 0 0 vibrato-amount empty vibrato-amount
-2 -8 0 10 -262144 -1 -1 0 1;
#X obj 855 551 hsl 128 15 0 20 0 0 vibrato-freq empty vibrato-freq
-2 -8 0 10 -262144 -1 -1 0 1;
#X floatatom 852 571 5 0 0 0 - - -, f 5;
#X obj 852 315 hradio 15 0 0 8 root-note empty root-note 0 -8 0 10
-262144 -1 -1 3;
#X obj 163 310 prepent next;
#X obj 163 378 prepent next;
#X floatatom 852 471 5 0 0 0 - - -, f 5;
#X floatatom 852 421 5 0 0 0 - - -, f 5;
#X obj 858 122 loadbang;
#X obj 350 43 hsl 128 15 10 1000 0 0 empty empty empty -2 -8 0 10 -262144
-1 -1 0 1;
#X obj 163 355 list split 1;
#X obj 634 266 r root-note;
#X obj 576 208 t a b;
#X obj 576 400 prepent next;
#X obj 646 147 bng 15 250 50 0 empty empty empty 17 7 0 10 -262144
-1 -1;
#X obj 263 53 dust 300;
#X obj 855 351 hsl 128 15 0 127 0 0 bell-duration empty bell-duration
-2 -8 0 10 -262144 -1 -1 0 1;
#X floatatom 852 371 5 0 0 0 - - -, f 5;
#X obj 576 431 clone bell-voice 5;
#X obj 646 102 tgl 15 0 empty empty empty 17 7 0 10 -262144 -1 -1 0
1;
#X obj 694 102 hsl 128 15 10 1000 0 0 empty empty empty -2 -8 0 10
-262144 -1 -1 0 1;
#X obj 646 126 dust 300;
#X floatatom 852 521 5 0 0 0 - - -, f 5;
#X obj 868 149 del 5;
#X obj 281 667 tgl 15 0 empty empty empty 17 7 0 10 -262144 -1 -1 0
1;
#X msg 261 688 next \$1;
#X obj 261 642 r flipper-change;
#N canvas 0 22 452 354 filters 0;
#X obj 104 250 bob~;
#X floatatom 160 258 5 0 0 0 - - -, f 5;
#X obj 118 219 +~ 1500;
#X obj 118 194 *~ 1000;
#X obj 194 250 bob~;
#X obj 208 219 +~ 1500;
#X obj 208 194 *~ 1000;
#X obj 208 169 osc~ 0.5;
#X obj 118 169 osc~ 0.3;
#X obj 99 134 inlet~;
#X obj 90 288 outlet~;
#X obj 191 292 outlet~;
#X floatatom 179 65 5 0 999 0 - - -, f 5;
#X msg 179 111 saturation \$1;
#X obj 179 87 / 100;
#X msg 179 40 300;
#X connect 0 0 10 0;
#X connect 1 0 0 2;
#X connect 1 0 4 2;
#X connect 2 0 0 1;
#X connect 3 0 2 0;
#X connect 4 0 11 0;
#X connect 5 0 4 1;
#X connect 6 0 5 0;
#X connect 7 0 6 0;
#X connect 8 0 3 0;
#X connect 9 0 0 0;
#X connect 9 0 4 0;
#X connect 12 0 14 0;
#X connect 13 0 4 0;
#X connect 13 0 0 0;
#X connect 14 0 13 0;
#X connect 15 0 12 0;
#X restore 450 669 pd filters;
#X obj 81 648 hsl 128 15 0 1 0 0 empty empty empty -2 -8 0 10 -262144
-1 -1 3200 1;
#X obj 663 286 r scale;
#X obj 860 35 loadbang;
#X obj 841 38 bng 15 250 50 0 empty empty empty 17 7 0 10 -262144 -1
-1;
#X obj 860 59 major-scale;
#X obj 860 81 s scale;
#X obj 712 755 cnv 15 100 30 empty empty walls 20 12 0 14 -203904 -66577
0;
#X obj 41 50 cnv 15 100 30 empty empty bumpers 20 12 0 14 -261682 -66577
0;
#X msg 467 338 80;
#X obj 401 392 keypiano;
#X obj 163 402 clone spring-voice 5;
#X obj 690 654 prepent next;
#X obj 574 30 r hit-rollover;
#X obj 163 39 r hit-bumper;
#X obj 690 604 r hit-wall;
#X obj 594 62 bng 15 250 50 0 empty empty empty 17 7 0 10 -262144 -1
-1;
#X msg 622 56 1;
#X obj 32 492 r ball-velocities;
#X obj 62 597 list-pad;
#X msg 107 574 0 0 0 0 0;
#X obj 107 552 loadbang;
#X obj 62 622 list-enumerate;
#X text 167 578 5 balls max;
#X obj 32 517 list split 5;
#X msg 78 709 0 \$1;
#N canvas 0 22 836 828 table-resonance 0;
#X floatatom 276 310 0 0 120 0 - - -;
#X text 342 311 level \, dB;
#X floatatom 311 332 0 0 100 0 - - -;
#X text 352 332 liveness \, 0-100;
#X floatatom 346 359 4 0 5000 0 - - -, f 4;
#X floatatom 381 379 0 0 100 0 - - -;
#X text 394 354 crossover frequency \, Hz.;
#X obj 28 207 delread~ \$0slapback 25;
#X obj 216 248 delwrite~ \$0slapback 100;
#X obj 28 229 *~ 0.8;
#X obj 38 299 *~ 0.7;
#X obj 38 277 delread~ \$0slapback 70;
#X obj 221 334 *~ 0.9;
#X obj 205 219 +~;
#X obj 205 175 inlet~;
#X obj 206 405 rev3~ 120 45 500 20;
#X obj 244 502 outlet~;
#X obj 294 502 outlet~;
#X connect 0 0 15 2;
#X connect 2 0 15 3;
#X connect 4 0 15 4;
#X connect 5 0 15 5;
#X connect 7 0 9 0;
#X connect 9 0 15 0;
#X connect 10 0 15 0;
#X connect 11 0 10 0;
#X connect 12 0 16 0;
#X connect 12 0 17 0;
#X connect 13 0 8 0;
#X connect 13 0 12 0;
#X connect 13 0 15 0;
#X connect 14 0 13 0;
#X connect 15 0 16 0;
#X connect 15 1 17 0;
#X restore 413 856 pd table-resonance;
#X obj 62 822 table-resonator;
#X msg 768 606 0.5;
#X msg 808 606 0.9;
#X obj 690 714 *~ 3;
#N canvas 0 22 574 339 synth-reverb 0;
#X obj 174 168 dac~;
#X floatatom 241 120 0 0 120 0 - - -;
#X text 442 71 level \, dB;
#X floatatom 276 142 0 0 100 0 - - -;
#X text 317 142 liveness \, 0-100;
#X floatatom 311 169 4 0 5000 0 - - -, f 4;
#X floatatom 346 189 0 0 100 0 - - -;
#X text 359 164 crossover frequency \, Hz.;
#X obj 32 275 delwrite~ \$0echo 1000;
#X obj 32 162 delread~ \$0echo 500;
#X obj 104 39 inlet~;
#X obj 32 204 *~ 0.8;
#X obj 170 215 rev3~ 120 98 3000 20;
#X obj 32 226 lop~ 1000;
#X obj 291 28 r game-over-in-progress;
#X obj 291 50 sel 1;
#X msg 291 72 40;
#X msg 321 72 98;
#X obj 174 142 *~;
#X obj 189 98 vline~;
#X msg 189 74 \$1 10;
#X obj 104 71 *~ 0.005;
#X obj 189 300 outlet~;
#X obj 259 300 outlet~;
#X obj 193 41 * 6;
#X connect 1 0 12 2;
#X connect 3 0 12 3;
#X connect 5 0 12 4;
#X connect 6 0 12 5;
#X connect 9 0 11 0;
#X connect 9 0 12 0;
#X connect 10 0 21 0;
#X connect 11 0 13 0;
#X connect 12 0 22 0;
#X connect 12 1 23 0;
#X connect 13 0 8 0;
#X connect 14 0 15 0;
#X connect 14 0 24 0;
#X connect 15 0 16 0;
#X connect 15 1 17 0;
#X connect 16 0 12 3;
#X connect 17 0 12 3;
#X connect 18 0 0 0;
#X connect 18 0 0 1;
#X connect 19 0 18 1;
#X connect 20 0 19 0;
#X connect 21 0 11 0;
#X connect 21 0 12 0;
#X connect 21 0 18 0;
#X connect 24 0 20 0;
#X restore 1038 875 pd synth-reverb;
#X obj 855 795 keypiano;
#X obj 1038 814 prepent next;
#N canvas 776 73 480 427 note-run 0;
#X obj 145 273 t a;
#X obj 60 222 f;
#X obj 95 222 + 1;
#X obj 136 142 random 2;
#X obj 136 164 sel 0 1;
#X msg 310 179 0;
#X obj 60 273 list prepend;
#X obj 60 125 until;
#X obj 41 22 inlet;
#X text 117 28 generates a sequence of N items increasing by 1 or 2
each time;
#X obj 60 158 t b b;
#X obj 40 309 list;
#X obj 41 57 t b b b;
#X obj 346 178 t b;
#X obj 40 343 outlet;
#X obj 60 95 random 4;
#X msg 136 193 2;
#X msg 176 193 3;
#X connect 0 0 6 1;
#X connect 1 0 2 0;
#X connect 1 0 6 0;
#X connect 2 0 1 1;
#X connect 3 0 4 0;
#X connect 4 0 16 0;
#X connect 4 1 17 0;
#X connect 5 0 1 1;
#X connect 6 0 0 0;
#X connect 6 0 11 1;
#X connect 7 0 10 0;
#X connect 8 0 12 0;
#X connect 10 0 1 0;
#X connect 10 1 3 0;
#X connect 11 0 14 0;
#X connect 12 0 11 0;
#X connect 12 1 15 0;
#X connect 12 2 13 0;
#X connect 13 0 5 0;
#X connect 13 0 6 1;
#X connect 15 0 7 0;
#X connect 16 0 2 1;
#X connect 17 0 2 1;
#X restore 1038 344 pd note-run;
#X obj 1038 396 list-map;
#X obj 1038 294 t b b;
#X obj 1038 500 prepent next;
#X obj 1038 548 list split 1;
#X obj 1038 136 tgl 15 0 empty empty empty 17 7 0 10 -262144 -1 -1
0 1;
#X obj 1038 267 sel 0;
#X obj 1038 245 random 3;
#X obj 1094 124 loadbang;
#X obj 1038 165 metro 500;
#X obj 643 202 cnv 15 100 30 empty empty rollovers 20 12 0 14 -204786
-66577 0;
#X obj 53 894 cnv 15 100 30 empty empty ball-roll 20 12 0 14 -261234
-66577 0;
#X obj 323 756 cnv 15 100 30 empty empty flippers 20 12 0 14 -262130
-66577 0;
#X obj 1152 467 cnv 15 100 30 empty empty theme 20 12 0 14 -204800
-66577 0;
#X obj 855 867 list append 1;
#X obj 1038 575 list append 1;
#X obj 576 307 degree-to-note2;
#X obj 283 165 r root-note;
#X obj 312 185 r scale;
#X obj 225 206 degree-to-note2;
#X obj 1164 355 r root-note;
#X obj 1193 375 r scale;
#X obj 1106 396 degree-to-note2;
#X obj 1135 311 random 4;
#X obj 1135 334 + 3;
#X obj 1394 355 r root-note;
#X obj 1423 375 r scale;
#X obj 1336 396 degree-to-note2;
#X obj 1365 311 random 4;
#X obj 1336 269 random 7;
#X obj 1038 222 sel 0;
#X obj 1336 224 t b b;
#X text 1345 427 quieter melody;
#X obj 1338 575 list append 0.2;
#X obj 1038 196 i;
#X obj 1068 196 + 1;
#X obj 1096 197 % 2;
#X obj 1291 680 hsl 128 15 0 200 0 0 ambient-strum-length empty ambient-strum-length
-2 -8 0 10 -262144 -1 -1 0 1;
#X obj 1365 334 + 4;
#X obj 163 333 clone strum-voice 11 strum-length;
#X obj 1038 523 clone strum-voice 11 ambient-strum-length;
#X msg 858 172 \; strum-length 25 \; string-duration 0.97 \; vibrato-amount
0.3 \; vibrato-freq 6 \; bell-duration 127 \; ambient-strum-length
200 \;;
#X obj 1247 1038 s~ pitchbend;
#X obj 1247 954 vline~;
#X obj 1257 980 *~;
#X obj 1247 1007 *~ 48;
#X obj 1038 848 clone ambient-synth-voice 8;
#X obj 1247 718 r game-over;
#X msg 1281 851 1;
#X msg 1319 846 0;
#X obj 1281 874 s game-over-in-progress;
#X obj 1319 824 del 2000;
#X obj 483 133 r serve-ball;
#X obj 1122 225 r game-over;
#X obj 1290 94 s game-over;
#X obj 1289 44 bng 15 250 50 0 empty empty empty 17 7 0 10 -262144
-1 -1;
#X msg 483 165 5 \, 9 \, 12;
#X obj 261 723 clone flipper-voice 3;
#X obj 395 971 catch~ dacL;
#X obj 475 971 catch~ dacR;
#X obj 393 1017 *~;
#X obj 473 1017 *~;
#X obj 555 981 loadbang;
#X obj 423 1069 dac~;
#X text 432 945 final gain staging;
#X obj 405 921 catch~ dacLR;
#X obj 62 869 throw~ dacLR;
#X obj 507 735 throw~ dacL;
#X obj 517 715 throw~ dacR;
#X obj 1038 945 throw~ dacL;
#X obj 1125 915 throw~ dacR;
#X obj 413 896 throw~ dacL;
#X obj 516 897 throw~ dacR;
#X obj 576 560 throw~ dacLR;
#X msg 532 1005 0.1;
#X obj 606 171 random 24;
#X msg 605 281 8;
#X obj 261 762 *~ 2;
#X obj 576 528 *~ 0.2;
#X obj 163 434 *~ 0.8;
#X obj 1030 21 r rollover-count;
#X obj 1030 43 s root-note;
#X obj 1383 718 r multi-ball;
#X msg 1247 903 \$1 \, \$2 2000 \, \$1 100 2000;
#X msg 1333 757 0 1;
#X msg 1383 757 1 0;
#X obj 1247 795 t a b;
#X obj 338 506 random 1000;
#X obj 338 528 / 1000;
#X obj 339 460 tgl 15 0 empty empty empty 17 7 0 10 -262144 -1 -1 0
1;
#X obj 62 738 clone rolling-ball 5;
#X obj 690 682 clone wall-voice 3;
#X text 387 529 stress test impacts;
#X obj 338 483 metro 16;
#X connect 0 0 17 0;
#X connect 1 0 3 0;
#X connect 2 0 6 0;
#X connect 3 0 16 0;
#X connect 3 1 92 0;
#X connect 4 0 5 0;
#X connect 5 0 92 1;
#X connect 6 0 1 0;
#X connect 6 1 4 0;
#X connect 7 0 27 0;
#X connect 8 0 19 0;
#X connect 9 0 18 0;
#X connect 10 0 16 0;
#X connect 11 0 10 0;
#X connect 12 0 34 0;
#X connect 13 0 14 0;
#X connect 16 0 112 0;
#X connect 17 0 50 0;
#X connect 20 0 114 0;
#X connect 20 0 35 0;
#X connect 21 0 27 1;
#X connect 22 1 17 0;
#X connect 23 0 89 2;
#X connect 24 0 89 0;
#X connect 24 1 149 0;
#X connect 25 0 30 0;
#X connect 26 0 148 0;
#X connect 27 0 2 0;
#X connect 28 0 29 0;
#X connect 30 0 151 0;
#X connect 31 0 33 0;
#X connect 32 0 33 1;
#X connect 33 0 26 0;
#X connect 35 0 114 0;
#X connect 36 0 37 0;
#X connect 37 0 130 0;
#X connect 38 0 37 0;
#X connect 39 0 140 0;
#X connect 39 1 141 0;
#X connect 40 0 64 0;
#X connect 41 0 89 3;
#X connect 42 0 44 0;
#X connect 43 0 44 0;
#X connect 44 0 45 0;
#X connect 48 0 25 0;
#X connect 48 0 16 0;
#X connect 49 0 25 0;
#X connect 50 0 152 0;
#X connect 51 0 164 0;
#X connect 52 0 24 0;
#X connect 53 0 6 0;
#X connect 54 0 51 0;
#X connect 56 0 24 0;
#X connect 57 0 63 0;
#X connect 58 0 61 0;
#X connect 59 0 58 1;
#X connect 60 0 59 0;
#X connect 61 0 163 0;
#X connect 63 0 58 0;
#X connect 63 2 58 0;
#X connect 64 0 163 0;
#X connect 65 0 144 0;
#X connect 65 1 145 0;
#X connect 66 0 139 0;
#X connect 67 0 51 0;
#X connect 68 0 51 0;
#X connect 69 0 65 0;
#X connect 70 0 142 0;
#X connect 70 1 143 0;
#X connect 71 0 87 0;
#X connect 72 0 119 0;
#X connect 73 0 74 0;
#X connect 74 0 76 0;
#X connect 74 1 95 0;
#X connect 75 0 73 0;
#X connect 75 1 96 0;
#X connect 76 0 113 0;
#X connect 77 1 88 0;
#X connect 78 0 82 0;
#X connect 79 0 75 0;
#X connect 80 0 79 0;
#X connect 81 0 82 0;
#X connect 82 0 104 0;
#X connect 82 0 107 0;
#X connect 87 0 72 0;
#X connect 88 0 72 0;
#X connect 89 0 25 0;
#X connect 90 0 92 2;
#X connect 91 0 92 3;
#X connect 92 0 3 1;
#X connect 93 0 95 2;
#X connect 94 0 95 3;
#X connect 95 0 74 1;
#X connect 96 0 97 0;
#X connect 97 0 95 1;
#X connect 98 0 100 2;
#X connect 99 0 100 3;
#X connect 100 0 106 0;
#X connect 101 0 111 0;
#X connect 102 0 100 0;
#X connect 103 0 80 0;
#X connect 104 0 102 0;
#X connect 104 1 101 0;
#X connect 106 0 72 0;
#X connect 107 0 108 0;
#X connect 107 0 103 0;
#X connect 108 0 109 0;
#X connect 109 0 107 1;
#X connect 111 0 100 1;
#X connect 112 0 22 0;
#X connect 113 0 77 0;
#X connect 116 0 117 0;
#X connect 116 0 117 1;
#X connect 116 0 118 0;
#X connect 118 0 115 0;
#X connect 119 0 70 0;
#X connect 120 0 157 0;
#X connect 121 0 123 0;
#X connect 122 0 123 0;
#X connect 124 0 122 0;
#X connect 125 0 129 0;
#X connect 126 0 80 0;
#X connect 128 0 127 0;
#X connect 129 0 24 0;
#X connect 130 0 150 0;
#X connect 131 0 133 0;
#X connect 132 0 134 0;
#X connect 133 0 136 0;
#X connect 134 0 136 1;
#X connect 135 0 147 0;
#X connect 138 0 133 0;
#X connect 138 0 134 0;
#X connect 147 0 134 1;
#X connect 147 0 133 1;
#X connect 148 0 24 0;
#X connect 149 0 89 1;
#X connect 150 0 65 0;
#X connect 151 0 146 0;
#X connect 152 0 39 0;
#X connect 153 0 154 0;
#X connect 155 0 158 0;
#X connect 156 0 116 0;
#X connect 157 0 159 0;
#X connect 158 0 159 0;
#X connect 159 0 156 0;
#X connect 159 1 124 0;
#X connect 159 1 121 0;
#X connect 160 0 161 0;
#X connect 161 0 63 0;
#X connect 161 0 51 0;
#X connect 162 0 166 0;
#X connect 163 0 65 0;
#X connect 163 0 66 0;
#X connect 164 0 69 0;
#X connect 166 0 160 0;
#X coords 0 0 1 1 114 119 0;
