#N canvas 529 200 1000 764 10;
#X obj 197 53 noise~;
#X obj 357 237 bp~ 0 50;
#X obj 460 231 hsl 128 15 0 127 0 0 empty empty resonant-freq -2 -8
0 10 -262144 -1 -1 0 1;
#X obj 357 257 bp~ 0 50;
#X obj 457 272 mtof;
#X obj 460 313 hsl 128 15 0 127 0 0 empty empty resonant-q -2 -8 0
10 -262144 -1 -1 0 1;
#X obj 227 134 osc~ 20;
#X obj 196 187 *~;
#X obj 458 34 hsl 128 15 0 1 0 0 empty empty velocity -2 -8 0 10 -262144
-1 -1 0 1;
#X floatatom 465 250 5 0 0 0 - - -, f 5;
#X obj 357 277 bp~ 0 50;
#X obj 227 163 max~ 0;
#X obj 457 73 rescale 0 1 30 75;
#X obj 232 527 *~ 0.5;
#X obj 232 559 *~;
#X obj 740 198 t a;
#X obj 741 263 line~;
#X msg 741 237 \$1 5;
#X floatatom 457 338 5 0 0 0 - - -, f 5;
#X obj 97 287 bp~ 0 50;
#X obj 97 307 bp~ 0 50;
#X obj 97 327 bp~ 0 50;
#X obj 457 103 rescale 0 1 50 60;
#X obj 181 351 hsl 128 15 0 127 0 0 empty empty resonant-q -2 -8 0
10 -262144 -1 -1 0 1;
#X floatatom 178 376 5 0 0 0 - - -, f 5;
#X obj 184 297 hsl 128 15 0 127 0 0 empty empty resonant-freq -2 -8
0 10 -262144 -1 -1 0 1;
#X obj 181 317 mtof;
#X obj 97 379 *~ 0.3;
#X obj 181 260 rescale 0 1 65 75;
#X obj 638 49 inlet;
#X obj 232 594 outlet~;
#X connect 0 0 7 0;
#X connect 1 0 3 0;
#X connect 2 0 4 0;
#X connect 2 0 9 0;
#X connect 3 0 10 0;
#X connect 4 0 1 1;
#X connect 4 0 3 1;
#X connect 4 0 10 1;
#X connect 5 0 3 2;
#X connect 5 0 1 2;
#X connect 5 0 10 2;
#X connect 5 0 18 0;
#X connect 6 0 11 0;
#X connect 7 0 1 0;
#X connect 7 0 19 0;
#X connect 8 0 12 0;
#X connect 8 0 15 0;
#X connect 8 0 22 0;
#X connect 8 0 28 0;
#X connect 10 0 13 0;
#X connect 11 0 7 1;
#X connect 12 0 6 0;
#X connect 13 0 14 0;
#X connect 14 0 30 0;
#X connect 15 0 17 0;
#X connect 16 0 14 1;
#X connect 17 0 16 0;
#X connect 19 0 20 0;
#X connect 20 0 21 0;
#X connect 21 0 27 0;
#X connect 22 0 2 0;
#X connect 23 0 24 0;
#X connect 23 0 21 2;
#X connect 23 0 20 2;
#X connect 23 0 19 2;
#X connect 25 0 26 0;
#X connect 26 0 19 1;
#X connect 26 0 20 1;
#X connect 26 0 21 1;
#X connect 27 0 13 0;
#X connect 28 0 25 0;
#X connect 29 0 8 0;
