#N canvas 612 28 952 915 10;
#X obj 188 772 dac~;
#X obj 266 237 hsl 128 15 50 5000 1 0 empty empty empty -2 -8 0 10
-262144 -1 -1 0 1;
#X obj 363 260 hsl 128 15 50 5000 1 0 empty empty empty -2 -8 0 10
-262144 -1 -1 0 1;
#X obj 376 628 hsl 128 15 0 1 0 0 empty empty empty -2 -8 0 10 -262144
-1 -1 0 1;
#X obj 190 586 +~;
#X obj 469 575 hsl 128 15 0 127 0 0 empty empty empty -2 -8 0 10 -262144
-1 -1 0 1;
#X obj 386 758 hsl 128 15 0 1 0 0 empty empty empty -2 -8 0 10 -262144
-1 -1 0 1;
#X obj 479 655 hsl 128 15 0 127 0 0 empty empty empty -2 -8 0 10 -262144
-1 -1 0 1;
#X obj 463 500 hsl 128 15 50 5000 1 0 empty empty empty -2 -8 0 10
-262144 -1 -1 0 1;
#X obj 315 144 hsl 128 15 50 5000 1 0 empty empty empty -2 -8 0 10
-262144 -1 -1 0 1;
#X obj 383 311 hsl 128 15 0 100 0 0 empty empty empty -2 -8 0 10 -262144
-1 -1 0 1;
#X obj 382 534 delwrite~ \$0res 1000;
#X obj 106 237 hsl 128 15 50 5000 1 0 empty empty empty -2 -8 0 10
-262144 -1 -1 0 1;
#X obj 328 424 vline~;
#X obj 311 450 *~;
#X obj 307 383 noise~;
#X msg 373 424 1 \, 0 1;
#X obj 373 379 tgl 15 0 empty empty empty 17 7 0 10 -262144 -1 -1 0
1;
#X obj 190 450 +~;
#X floatatom 472 595 5 0 0 0 - - -, f 5;
#X floatatom 514 627 5 0 0 0 - - -, f 5;
#X obj 324 609 *~ 0.49;
#X floatatom 386 782 5 0 0 0 - - -, f 5;
#X obj 334 739 *~ 0.4;
#X obj 373 401 metro 500;
#X floatatom 477 675 5 0 0 0 - - -, f 5;
#X floatatom 106 257 5 0 0 0 - - -, f 5;
#X floatatom 266 257 5 0 0 0 - - -, f 5;
#X floatatom 363 280 5 0 0 0 - - -, f 5;
#X floatatom 383 331 5 0 0 0 - - -, f 5;
#X obj 315 195 * 0.6;
#X obj 116 203 * 0.34;
#X obj 614 298 +~;
#X obj 614 241 noise~;
#X obj 674 184 osc~ 13;
#X obj 674 163 hsl 128 15 0 127 0 0 empty empty empty -2 -8 0 10 -262144
-1 -1 300 1;
#X obj 398 27 hsl 128 15 0 1 0 0 empty empty empty -2 -8 0 10 -262144
-1 -1 0 1;
#X obj 30 288 bp~ 3000 50;
#X obj 190 288 bp~ 3000 50;
#X obj 287 291 bp~ 3000 50;
#X obj 734 230 hsl 128 15 0 1000 0 0 empty empty empty -2 -8 0 10 -262144
-1 -1 0 1;
#X obj 744 210 hsl 128 15 0 1000 0 0 empty empty empty -2 -8 0 10 -262144
-1 -1 0 1;
#X obj 465 69 rescale 0 1 3 30;
#X obj 664 97 hsl 128 15 0 5 0 0 empty empty empty -2 -8 0 10 -262144
-1 -1 0 1;
#X obj 335 69 rescale 0 1 50 5000;
#X floatatom 688 111 5 0 0 0 - - -, f 5;
#X obj 614 268 vcf~ 3.7;
#X floatatom 521 525 5 0 0 0 - - -, f 5;
#X obj 394 497 lop~ 375;
#X obj 323 580 delread4~ \$0res;
#X obj 323 538 loadbang;
#X msg 323 558 20;
#X obj 334 718 delread4~ \$0res;
#X msg 334 697 19;
#X obj 334 677 loadbang;
#X floatatom 741 273 5 0 0 0 - - -, f 5;
#X floatatom 787 266 5 0 0 0 - - -, f 5;
#X obj 674 236 +~ 450;
#X obj 674 211 *~ 320;
#X obj 311 10 inlet;
#X obj 547 26 loadbang;
#X msg 584 45 0;
#X obj 189 745 *~ 2;
#X connect 1 0 27 0;
#X connect 1 0 38 1;
#X connect 2 0 28 0;
#X connect 2 0 39 1;
#X connect 3 0 20 0;
#X connect 3 0 21 1;
#X connect 4 0 48 0;
#X connect 4 0 62 0;
#X connect 5 0 19 0;
#X connect 5 0 49 0;
#X connect 6 0 22 0;
#X connect 6 0 23 1;
#X connect 7 0 25 0;
#X connect 7 0 52 0;
#X connect 8 0 47 0;
#X connect 8 0 48 1;
#X connect 9 0 2 0;
#X connect 9 0 30 0;
#X connect 9 0 31 0;
#X connect 10 0 29 0;
#X connect 10 0 37 2;
#X connect 10 0 38 2;
#X connect 10 0 39 2;
#X connect 12 0 26 0;
#X connect 12 0 37 1;
#X connect 13 0 14 1;
#X connect 14 0 4 0;
#X connect 15 0 14 0;
#X connect 16 0 13 0;
#X connect 17 0 24 0;
#X connect 18 0 4 0;
#X connect 21 0 4 0;
#X connect 21 0 62 0;
#X connect 23 0 4 0;
#X connect 23 0 62 0;
#X connect 24 0 16 0;
#X connect 30 0 1 0;
#X connect 31 0 12 0;
#X connect 32 0 37 0;
#X connect 32 0 38 0;
#X connect 32 0 39 0;
#X connect 33 0 46 0;
#X connect 34 0 58 0;
#X connect 35 0 34 0;
#X connect 36 0 42 0;
#X connect 36 0 44 0;
#X connect 37 0 18 0;
#X connect 38 0 18 0;
#X connect 39 0 18 0;
#X connect 40 0 56 0;
#X connect 40 0 57 1;
#X connect 41 0 55 0;
#X connect 41 0 58 1;
#X connect 42 0 35 0;
#X connect 43 0 45 0;
#X connect 43 0 46 2;
#X connect 44 0 9 0;
#X connect 46 0 32 0;
#X connect 48 0 11 0;
#X connect 49 0 21 0;
#X connect 50 0 51 0;
#X connect 51 0 49 0;
#X connect 52 0 23 0;
#X connect 53 0 52 0;
#X connect 54 0 53 0;
#X connect 57 0 46 1;
#X connect 58 0 57 0;
#X connect 59 0 44 0;
#X connect 59 0 42 0;
#X connect 60 0 61 0;
#X connect 61 0 36 0;
#X connect 62 0 0 0;
#X connect 62 0 0 1;
