#N canvas 746 435 826 429 10;
#X obj 95 263 vline~;
#X obj 80 287 *~;
#X obj 80 204 noise~;
#X obj 119 397 outlet~;
#X obj 196 252 *~ 1000;
#X obj 211 143 +~;
#X obj 211 176 mtof~;
#X obj 196 228 /~;
#X obj 196 207 sig~ 1;
#X msg 95 240 1 \, 0 5;
#X obj 258 135 osc~ 7;
#X obj 258 162 *~ 0.5;
#N canvas 0 22 602 432 delayline 0;
#X obj 74 156 inlet~;
#X obj 172 154 inlet~;
#X obj 188 200 delread4~ \$0delay;
#X obj 72 299 delwrite~ \$0delay 1000;
#X obj 234 306 outlet~;
#X obj 188 254 *~ 0.97;
#X obj 296 159 inlet;
#X obj 96 52 block~ 1;
#X text 96 75 subpatch to change default blocksize so we can have shorter
delays;
#X connect 0 0 3 0;
#X connect 1 0 2 0;
#X connect 2 0 5 0;
#X connect 5 0 3 0;
#X connect 5 0 4 0;
#X connect 6 0 5 1;
#X restore 119 353 pd delayline;
#X obj 389 320 rescale 0 127 0.97 0.999;
#X obj 485 275 r string-duration;
#X obj 369 270 t a b;
#X text 384 234 annoying workaround for unreliable loadbangs in purr
data (and vanilla?);
#X obj 329 156 r vibrato-amount;
#X obj 329 126 r vibrato-freq;
#X obj 196 34 inlet;
#X obj 196 88 t a;
#X obj 47 159 osc~;
#X obj 33 196 *~ 0.3;
#X connect 0 0 1 1;
#X connect 1 0 12 0;
#X connect 2 0 1 0;
#X connect 4 0 12 1;
#X connect 5 0 6 0;
#X connect 6 0 7 1;
#X connect 6 0 21 0;
#X connect 7 0 4 0;
#X connect 8 0 7 0;
#X connect 9 0 0 0;
#X connect 10 0 11 0;
#X connect 11 0 5 1;
#X connect 12 0 3 0;
#X connect 13 0 12 2;
#X connect 14 0 13 3;
#X connect 15 0 13 0;
#X connect 15 1 13 1;
#X connect 15 1 13 2;
#X connect 15 1 13 3;
#X connect 15 1 13 4;
#X connect 17 0 11 1;
#X connect 18 0 10 0;
#X connect 19 0 20 0;
#X connect 20 0 9 0;
#X connect 20 0 5 0;
#X connect 20 0 15 0;
#X connect 21 0 22 0;
#X connect 22 0 1 0;
