#N canvas 0 22 819 591 10;
#X obj 336 288 hsl 128 15 0 1 0 0 empty empty empty -2 -8 0 10 -262144
-1 -1 0 1;
#X obj 150 246 +~;
#X obj 429 235 hsl 128 15 0 127 0 0 empty empty empty -2 -8 0 10 -262144
-1 -1 0 1;
#X obj 346 418 hsl 128 15 0 1 0 0 empty empty empty -2 -8 0 10 -262144
-1 -1 0 1;
#X obj 439 315 hsl 128 15 0 127 0 0 empty empty empty -2 -8 0 10 -262144
-1 -1 0 1;
#X obj 423 160 hsl 128 15 50 5000 1 0 empty empty empty -2 -8 0 10
-262144 -1 -1 0 1;
#X obj 342 194 delwrite~ \$0res 1000;
#X obj 288 84 vline~;
#X obj 271 110 *~;
#X obj 267 43 noise~;
#X msg 333 84 1 \, 0 1;
#X obj 333 39 tgl 15 0 empty empty empty 17 7 0 10 -262144 -1 -1 0
1;
#X floatatom 432 255 5 0 0 0 - - -, f 5;
#X floatatom 332 307 5 0 0 0 - - -, f 5;
#X obj 284 269 *~ 0.49;
#X floatatom 346 442 5 0 0 0 - - -, f 5;
#X obj 294 399 *~ 0.4;
#X obj 333 61 metro 500;
#X floatatom 437 335 5 0 0 0 - - -, f 5;
#X floatatom 481 185 5 0 0 0 - - -, f 5;
#X obj 354 157 lop~ 375;
#X obj 283 240 delread4~ \$0res;
#X obj 283 198 loadbang;
#X msg 283 218 20;
#X obj 294 378 delread4~ \$0res;
#X msg 294 357 19;
#X obj 294 337 loadbang;
#X obj 149 405 *~ 2;
#X obj 150 159 inlet~;
#X obj 149 466 outlet~;
#X connect 0 0 13 0;
#X connect 0 0 14 1;
#X connect 1 0 20 0;
#X connect 1 0 27 0;
#X connect 2 0 12 0;
#X connect 2 0 21 0;
#X connect 3 0 15 0;
#X connect 3 0 16 1;
#X connect 4 0 18 0;
#X connect 4 0 24 0;
#X connect 5 0 19 0;
#X connect 5 0 20 1;
#X connect 7 0 8 1;
#X connect 8 0 1 0;
#X connect 9 0 8 0;
#X connect 10 0 7 0;
#X connect 11 0 17 0;
#X connect 14 0 1 0;
#X connect 14 0 27 0;
#X connect 16 0 1 0;
#X connect 16 0 27 0;
#X connect 17 0 10 0;
#X connect 20 0 6 0;
#X connect 21 0 14 0;
#X connect 22 0 23 0;
#X connect 23 0 21 0;
#X connect 24 0 16 0;
#X connect 25 0 24 0;
#X connect 26 0 25 0;
#X connect 27 0 29 0;
#X connect 28 0 1 0;
