#N canvas 0 22 923 838 10;
#X obj 252 208 * 200;
#X obj 195 233 f;
#X msg 195 264 1 1 0 \, 0 \$1 1;
#X obj 195 299 vline~;
#X obj 195 321 *~;
#X obj 215 353 *~;
#X obj 195 603 *~;
#X obj 215 415 *~;
#X obj 215 539 +~;
#X obj 215 561 osc~;
#X obj 230 514 *~;
#X obj 312 640 *~;
#X obj 312 692 *~ 0.2;
#X obj 146 182 bng 15 250 50 0 empty empty empty 17 7 0 10 -262144
-1 -1;
#X obj 415 135 / 1000;
#X obj 415 69 bng 15 250 50 0 empty empty empty 17 7 0 10 -262144 -1
-1;
#X obj 308 117 t b a;
#X obj 415 21 tgl 15 0 empty empty empty 17 7 0 10 -262144 -1 -1 0
1;
#X obj 415 43 dust 250;
#X obj 324 478 hsl 128 15 0 500 0 0 empty empty empty -2 -8 0 10 -262144
-1 -1 0 1;
#X obj 324 518 hsl 128 15 0 500 0 0 empty empty empty -2 -8 0 10 -262144
-1 -1 0 1;
#X obj 324 438 hsl 128 15 0 500 0 0 empty empty empty -2 -8 0 10 -262144
-1 -1 0 1;
#X obj 324 398 hsl 128 15 0 500 0 0 empty empty empty -2 -8 0 10 -262144
-1 -1 0 1;
#X obj 471 349 noise~;
#X obj 536 421 vline~;
#X obj 536 443 *~;
#X obj 536 465 *~ 1000;
#X obj 511 504 vcf~ 4;
#X obj 546 550 hsl 128 15 0 127 0 0 empty empty empty -2 -8 0 10 -262144
-1 -1 0 1;
#X floatatom 321 418 5 0 0 0 - - -, f 5;
#X floatatom 321 458 5 0 0 0 - - -, f 5;
#X floatatom 321 498 5 0 0 0 - - -, f 5;
#X floatatom 321 538 5 0 0 0 - - -, f 5;
#X obj 415 89 random 1000;
#X obj 415 112 + 0;
#X obj 230 394 *~ 300;
#X obj 230 462 osc~ 413;
#X obj 245 487 *~ 492;
#X obj 215 437 +~ 200;
#X obj 254 604 *~ 0.5;
#X obj 308 52 inlet;
#X msg 531 389 \$1 \, 0 100;
#X obj 305 758 outlet~;
#X obj 327 258 lop~ 30;
#X obj 327 229 sig~;
#X connect 0 0 1 1;
#X connect 1 0 2 0;
#X connect 2 0 3 0;
#X connect 3 0 4 0;
#X connect 3 0 4 1;
#X connect 4 0 5 0;
#X connect 4 0 5 1;
#X connect 4 0 6 0;
#X connect 5 0 7 0;
#X connect 6 0 39 0;
#X connect 7 0 38 0;
#X connect 8 0 9 0;
#X connect 9 0 6 1;
#X connect 10 0 8 1;
#X connect 11 0 12 0;
#X connect 12 0 42 0;
#X connect 13 0 1 0;
#X connect 14 0 16 0;
#X connect 15 0 33 0;
#X connect 16 0 1 0;
#X connect 16 1 0 0;
#X connect 16 1 41 0;
#X connect 16 1 44 0;
#X connect 17 0 18 0;
#X connect 18 0 33 0;
#X connect 19 0 31 0;
#X connect 19 0 36 1;
#X connect 20 0 32 0;
#X connect 20 0 37 1;
#X connect 21 0 30 0;
#X connect 21 0 38 1;
#X connect 22 0 29 0;
#X connect 22 0 35 1;
#X connect 23 0 27 0;
#X connect 24 0 25 0;
#X connect 24 0 25 1;
#X connect 25 0 26 0;
#X connect 26 0 27 1;
#X connect 27 1 12 0;
#X connect 28 0 27 2;
#X connect 33 0 34 0;
#X connect 34 0 14 0;
#X connect 35 0 7 1;
#X connect 36 0 10 0;
#X connect 37 0 10 1;
#X connect 38 0 8 0;
#X connect 39 0 11 0;
#X connect 40 0 16 0;
#X connect 41 0 24 0;
#X connect 43 0 11 1;
#X connect 43 0 35 0;
#X connect 43 0 37 0;
#X connect 44 0 43 0;
