#N canvas 0 22 286 320 10;
#X obj 109 97 vline~;
#X msg 109 65 1 \, 0 100;
#X obj 109 139 *~;
#X obj 89 181 *~;
#X obj 44 129 noise~;
#X obj 83 251 dac~;
#X obj 89 223 *~ 0.5;
#X obj 109 31 r clack-clacker;
#X connect 0 0 2 0;
#X connect 0 0 2 1;
#X connect 1 0 0 0;
#X connect 2 0 3 1;
#X connect 3 0 6 0;
#X connect 4 0 3 0;
#X connect 6 0 5 0;
#X connect 6 0 5 1;
#X connect 7 0 1 0;
