#N canvas 770 445 450 300 10;
#X obj 140 246 dac~;
#X obj 140 216 *~;
#X obj 180 122 *~ 0.5;
#X obj 180 146 +~ 1;
#X obj 210 216 *~;
#X obj 250 122 *~ 0.5;
#X obj 250 146 +~ 1;
#X obj 180 95 osc~ 1;
#X obj 250 95 osc~ 1;
#X obj 224 36 loadbang;
#X msg 218 63 0;
#X msg 276 62 0.5;
#X obj 59 92 adc~;
#X connect 1 0 0 0;
#X connect 2 0 3 0;
#X connect 3 0 1 1;
#X connect 4 0 0 1;
#X connect 5 0 6 0;
#X connect 6 0 4 1;
#X connect 7 0 2 0;
#X connect 8 0 5 0;
#X connect 9 0 10 0;
#X connect 9 0 11 0;
#X connect 10 0 7 1;
#X connect 11 0 8 1;
#X connect 12 0 1 0;
#X connect 12 1 4 0;
