#N canvas 294 66 891 655 10;
#X obj 140 211 makenote 100 100;
#X obj 173 264 noteout;
#X msg 91 119 0, f 4;
#X obj 121 69 t b a b;
#X msg 160 119 1;
#X obj 140 172 spigot;
#X msg 235 38 60;
#X obj 160 96 del 250;
#X obj 121 44 r midi-note\$1;
#X obj 275 210 r midi-instrument\$1;
#X connect 0 0 1 0;
#X connect 0 1 1 1;
#X connect 2 0 5 1;
#X connect 3 0 2 0;
#X connect 3 1 5 0;
#X connect 3 2 7 0;
#X connect 4 0 5 1;
#X connect 5 0 0 0;
#X connect 6 0 3 0;
#X connect 7 0 4 0;
#X connect 8 0 3 0;
#X connect 9 0 1 2;
