#N canvas 848 410 764 651 10;
#X obj 236 272 osc~;
#X obj 236 593 outlet~;
#X obj 236 567 *~;
#X obj 236 68 \$1;
#X obj 236 37 loadbang;
#X obj 236 192 + 36;
#X obj 236 230 mtof;
#X obj 332 313 +~;
#X obj 436 214 loadbang;
#X obj 436 240 \$1;
#X obj 436 265 * 100;
#X obj 261 355 sig~ 1;
#X obj 261 384 -~;
#X obj 261 528 *~;
#X obj 276 500 line~;
#X msg 276 457 1 10;
#X msg 417 454 0 10;
#X obj 236 139 -;
#X obj 276 431 threshold~ 0.5 10 0.5 10;
#X obj 332 356 tabread4~ image\$2;
#X obj 332 266 r~ \$2phase;
#X text 476 242 determines which row we read;
#X text 270 66 determines pitch;
#X text 294 385 invert image (could do this on OpenCV side);
#X text 435 430 threshold/silence values below 0.5;
#X msg 236 105 100 \$1;
#X connect 0 0 2 0;
#X connect 2 0 1 0;
#X connect 3 0 25 0;
#X connect 4 0 3 0;
#X connect 5 0 6 0;
#X connect 6 0 0 0;
#X connect 7 0 19 0;
#X connect 8 0 9 0;
#X connect 9 0 10 0;
#X connect 10 0 7 1;
#X connect 11 0 12 0;
#X connect 12 0 13 0;
#X connect 12 0 18 0;
#X connect 13 0 2 1;
#X connect 14 0 13 1;
#X connect 15 0 14 0;
#X connect 16 0 14 0;
#X connect 17 0 5 0;
#X connect 18 0 15 0;
#X connect 18 1 16 0;
#X connect 19 0 12 1;
#X connect 20 0 7 0;
#X connect 25 0 17 0;
