#N canvas 1481 299 742 665 10;
#N canvas 0 50 450 300 (subpatch) 0;
#X array \$1image 20000 float 2;
#X coords 0 1 20000 -1 200 140 1 0 0;
#X restore 52 66 graph;
#X obj 299 252 outlet~;
#X obj 189 268 loadbang;
#X text 18 339 initialize to "white image";
#X obj 329 214 pan~;
#X obj 376 252 outlet~;
#X msg 189 296 const 1;
#X obj 329 93 clone \$2 music-grain \$1 \$2;
#X obj 372 214 r \$1pan;
#X obj 452 304 r \$1resolution-y;
#X obj 452 325 change;
#X obj 452 347 s \$1resolution-y-change;
#X obj 452 395 change;
#X obj 452 374 r \$1resolution-x;
#X obj 452 417 s \$1resolution-x-change;
#X obj 372 236 change;
#X obj 259 274 r \$1clear;
#X obj 189 324 s \$1image;
#X msg 340 347 100;
#X obj 281 539 *;
#X obj 281 504 r \$1phase;
#X obj 281 602 s \$1phase-res-x;
#X obj 281 574 int;
#X obj 317 540 r \$1resolution-x-change;
#X obj 329 128 /~ 75;
#X obj 70 462 until;
#X msg 70 400 20000;
#X obj 70 490 f;
#X obj 102 491 + 1;
#X obj 70 543 t b a;
#X obj 70 597 tabwrite \$1image;
#X obj 70 378 loadbang;
#X msg 70 569 1;
#X obj 70 425 t a b;
#X msg 155 491 0;
#X text 50 629 comment;
#X obj 392 124 r \$1enabled;
#X obj 329 164 *~;
#X obj 392 174 line~;
#X msg 392 149 \$1 10;
#X connect 2 0 6 0;
#X connect 4 0 1 0;
#X connect 4 1 5 0;
#X connect 6 0 17 0;
#X connect 7 0 24 0;
#X connect 8 0 15 0;
#X connect 9 0 10 0;
#X connect 10 0 11 0;
#X connect 12 0 14 0;
#X connect 13 0 12 0;
#X connect 15 0 4 1;
#X connect 18 0 10 0;
#X connect 18 0 12 0;
#X connect 19 0 22 0;
#X connect 20 0 19 0;
#X connect 22 0 21 0;
#X connect 23 0 19 1;
#X connect 24 0 37 0;
#X connect 25 0 27 0;
#X connect 26 0 33 0;
#X connect 27 0 28 0;
#X connect 27 0 29 0;
#X connect 28 0 27 1;
#X connect 29 0 32 0;
#X connect 29 1 30 1;
#X connect 31 0 26 0;
#X connect 32 0 30 0;
#X connect 33 0 25 0;
#X connect 33 1 34 0;
#X connect 34 0 27 1;
#X connect 36 0 39 0;
#X connect 37 0 4 0;
#X connect 38 0 37 1;
#X connect 39 0 38 0;
