#N canvas 1271 320 668 657 10;
#X obj 71 570 outlet~;
#X obj 71 544 *~;
#X obj 197 548 line~;
#X msg 222 483 0;
#X obj 197 373 tabread \$2image;
#X obj 222 459 r \$2clear;
#X obj 266 214 *;
#X obj 266 238 int;
#X obj 266 294 *;
#X obj 197 331 +;
#X obj 266 108 loadbang;
#X obj 266 173 / \$3;
#X obj 379 137 t b;
#X obj 452 144 t b a;
#X obj 452 202 t b a;
#X obj 452 123 r \$2resolution-y-change;
#X obj 453 181 r \$2resolution-x-change;
#X obj 197 439 -;
#X msg 197 402 1 \$1;
#X obj 266 130 \$3;
#X obj 266 151 - \$1;
#X msg 197 525 \$1 10;
#X obj 71 109 r~ \$1osc;
#X obj 197 71 r \$2phase-res-x;
#X text 357 262 calc starting index of this grain's row;
#X text 233 333 add x-coordinate along row;
#X obj 437 485 == 50;
#X obj 438 435 loadbang;
#X obj 435 459 \$1;
#X obj 416 535 print;
#X obj 407 511 spigot;
#X connect 1 0 0 0;
#X connect 2 0 1 1;
#X connect 3 0 21 0;
#X connect 4 0 18 0;
#X connect 5 0 3 0;
#X connect 6 0 7 0;
#X connect 7 0 8 0;
#X connect 8 0 9 1;
#X connect 9 0 4 0;
#X connect 10 0 19 0;
#X connect 11 0 6 0;
#X connect 12 0 19 0;
#X connect 13 0 12 0;
#X connect 13 1 6 1;
#X connect 14 0 12 0;
#X connect 14 1 8 1;
#X connect 15 0 13 0;
#X connect 16 0 14 0;
#X connect 17 0 21 0;
#X connect 18 0 17 0;
#X connect 19 0 20 0;
#X connect 20 0 11 0;
#X connect 21 0 2 0;
#X connect 22 0 1 0;
#X connect 23 0 9 0;
#X connect 26 0 30 1;
#X connect 27 0 28 0;
#X connect 28 0 26 0;
#X connect 30 0 29 0;
