#N canvas 864 285 407 415 10;
#X obj 53 357 s~ \$1osc;
#X obj 53 323 osc~;
#X obj 53 38 loadbang;
#X obj 53 281 mtof;
#X obj 53 69 \$1;
#X text 94 150 note-range;
#X text 92 199 note-root;
#X obj 53 102 / \$2;
#X obj 53 151 * 100;
#X obj 53 201 + 20;
#X connect 1 0 0 0;
#X connect 2 0 4 0;
#X connect 3 0 1 0;
#X connect 4 0 7 0;
#X connect 7 0 8 0;
#X connect 8 0 9 0;
#X connect 9 0 3 0;
