#N canvas 1447 303 668 657 10;
#X obj 71 570 outlet~;
#X obj 71 544 *~;
#X obj 197 588 line~;
#X obj 222 254 *;
#X obj 222 278 int;
#X obj 222 148 loadbang;
#X obj 222 213 / \$3;
#X obj 308 194 t b a;
#X obj 308 173 r \$2resolution-y-change;
#X obj 197 519 -;
#X msg 197 482 1 \$1;
#X obj 222 170 \$3;
#X obj 222 191 - \$1;
#X msg 197 565 \$1 10;
#X obj 71 109 r~ \$1osc;
#X obj 197 71 r \$2phase-res-x;
#X text 233 333 add x-coordinate along row;
#X obj 197 331 f;
#X obj 197 441 change;
#X obj 197 121 t b;
#X obj 424 489 print-if \$1 == 50 foo;
#X obj 197 403 array get \$2image-column \$1 1;
#X connect 1 0 0 0;
#X connect 2 0 1 1;
#X connect 3 0 4 0;
#X connect 4 0 17 1;
#X connect 5 0 11 0;
#X connect 6 0 3 0;
#X connect 7 0 11 0;
#X connect 7 1 3 1;
#X connect 8 0 7 0;
#X connect 9 0 13 0;
#X connect 10 0 9 0;
#X connect 11 0 12 0;
#X connect 12 0 6 0;
#X connect 13 0 2 0;
#X connect 14 0 1 0;
#X connect 15 0 19 0;
#X connect 17 0 21 0;
#X connect 18 0 10 0;
#X connect 19 0 17 0;
#X connect 21 0 18 0;
