#N canvas 302 97 742 665 10;
#N canvas 0 50 450 300 (subpatch) 0;
#X array \$1image 20000 float 2;
#X coords 0 1 20000 -1 200 140 1 0 0;
#X restore 52 66 graph;
#X obj 299 272 outlet~;
#X obj 329 234 pan~;
#X obj 376 272 outlet~;
#X obj 329 93 clone \$2 music-grain \$1 \$2;
#X obj 392 214 r \$1pan;
#X obj 452 304 r \$1resolution-y;
#X obj 452 325 change;
#X obj 452 347 s \$1resolution-y-change;
#X obj 452 395 change;
#X obj 452 374 r \$1resolution-x;
#X obj 452 417 s \$1resolution-x-change;
#X obj 392 236 change;
#X msg 340 347 100;
#X obj 281 539 *;
#X obj 281 504 r \$1phase;
#X obj 281 602 s \$1phase-res-x;
#X obj 281 574 int;
#X obj 317 540 r \$1resolution-x-change;
#X obj 329 128 /~ 75;
#X obj 329 164 *~;
#X obj 392 174 line~;
#X msg 392 149 \$1 10;
#X obj 392 124 r \$1volume;
#X connect 2 0 1 0;
#X connect 2 1 3 0;
#X connect 4 0 19 0;
#X connect 5 0 12 0;
#X connect 6 0 7 0;
#X connect 7 0 8 0;
#X connect 9 0 11 0;
#X connect 10 0 9 0;
#X connect 12 0 2 1;
#X connect 13 0 7 0;
#X connect 13 0 9 0;
#X connect 14 0 17 0;
#X connect 15 0 14 0;
#X connect 17 0 16 0;
#X connect 18 0 14 1;
#X connect 19 0 20 0;
#X connect 20 0 2 0;
#X connect 21 0 20 1;
#X connect 22 0 21 0;
#X connect 23 0 22 0;
