#N canvas 415 492 862 405 10;
#X obj 269 255 dac~;
#X text 364 148 num-grains;
#X obj 341 214 rev3~ 100 80 3000 20;
#X obj 240 170 clone 8 music-image 100;
#X obj 536 258 scales;
#X obj 257 38 clone 100 music-osc 100;
#X connect 2 0 0 0;
#X connect 2 1 0 1;
#X connect 3 0 0 0;
#X connect 3 0 2 0;
#X connect 3 1 0 1;
#X connect 3 1 2 1;
