#N canvas 1123 220 764 651 10;
#X obj 236 272 osc~;
#X obj 236 593 outlet~;
#X obj 236 567 *~;
#X obj 236 68 \$1;
#X obj 236 37 loadbang;
#X obj 236 192 + 36;
#X obj 236 230 mtof;
#X obj 332 313 +~;
#X obj 436 214 loadbang;
#X obj 436 240 \$1;
#X obj 436 265 * 100;
#X obj 332 266 *~ 100;
#X msg 383 193 0;
#X obj 383 171 r play;
#X obj 58 40 inlet;
#X obj 332 356 tabread4~ image1;
#X obj 258 355 sig~ 1;
#X obj 258 384 -~;
#X obj 332 241 phasor~ 0.2;
#X obj 261 528 *~;
#X obj 276 500 line~;
#X msg 276 457 1 10;
#X msg 417 454 0 10;
#X obj 236 97 t b a;
#X obj 236 169 -;
#X msg 236 135 100;
#X obj 276 431 threshold~ 0.5 10 0.5 10;
#X connect 0 0 2 0;
#X connect 2 0 1 0;
#X connect 3 0 23 0;
#X connect 4 0 3 0;
#X connect 5 0 6 0;
#X connect 6 0 0 0;
#X connect 7 0 15 0;
#X connect 8 0 9 0;
#X connect 9 0 10 0;
#X connect 10 0 7 1;
#X connect 11 0 7 0;
#X connect 12 0 18 1;
#X connect 13 0 12 0;
#X connect 15 0 17 1;
#X connect 16 0 17 0;
#X connect 17 0 19 0;
#X connect 17 0 26 0;
#X connect 18 0 11 0;
#X connect 19 0 2 1;
#X connect 20 0 19 1;
#X connect 21 0 20 0;
#X connect 22 0 20 0;
#X connect 23 0 25 0;
#X connect 23 1 24 1;
#X connect 24 0 5 0;
#X connect 25 0 24 0;
#X connect 26 0 21 0;
#X connect 26 1 22 0;
