#N canvas 86 652 628 478 10;
#X obj 299 255 dac~;
#N canvas 354 288 680 823 dump-image-table 0;
#X obj 155 275 until;
#X obj 155 306 f;
#X obj 184 306 + 1;
#X msg 196 274 0;
#X obj 155 751 print;
#X obj 155 82 loadbang;
#X obj 155 134 metro 1000;
#X obj 174 495 until;
#X obj 174 526 f;
#X obj 203 526 + 1;
#X msg 215 494 0;
#X obj 174 425 t a b;
#X obj 174 561 +;
#X obj 174 660 list-extend;
#X obj 155 705 list;
#X obj 290 134 bng 15 250 50 0 empty empty empty 17 7 0 10 -262144
-1 -1;
#X obj 174 629 > 0.5;
#X obj 272 177 print **************;
#X text 438 103 print image 1 in ASCII;
#X obj 155 222 f;
#X obj 155 172 t b b;
#X obj 174 457 f;
#X obj 396 477 t f b;
#X obj 155 375 t b b f;
#X obj 155 343 *;
#X obj 200 457 r 0resolution-x;
#X obj 187 342 r 0resolution-y;
#X obj 171 198 r 0resolution-y;
#X obj 174 596 tabread 0image;
#X connect 0 0 1 0;
#X connect 1 0 2 0;
#X connect 1 0 24 0;
#X connect 2 0 1 1;
#X connect 3 0 1 1;
#X connect 6 0 17 0;
#X connect 6 0 20 0;
#X connect 7 0 8 0;
#X connect 8 0 9 0;
#X connect 8 0 12 0;
#X connect 9 0 8 1;
#X connect 10 0 8 1;
#X connect 11 0 21 0;
#X connect 11 1 10 0;
#X connect 12 0 28 0;
#X connect 13 0 14 1;
#X connect 14 0 4 0;
#X connect 15 0 20 0;
#X connect 16 0 13 0;
#X connect 19 0 0 0;
#X connect 20 0 19 0;
#X connect 20 1 3 0;
#X connect 21 0 7 0;
#X connect 22 0 12 1;
#X connect 22 1 13 1;
#X connect 23 0 14 0;
#X connect 23 1 11 0;
#X connect 23 2 22 0;
#X connect 24 0 23 0;
#X connect 25 0 21 1;
#X connect 26 0 24 1;
#X connect 27 0 19 1;
#X connect 28 0 16 0;
#X restore 43 96 pd dump-image-table;
#X text 394 148 num-grains;
#X obj 371 214 rev3~ 100 80 3000 20;
#X obj 287 38 clone 100 music-osc 100;
#X obj 270 170 clone 8 music-image 100;
#X connect 3 0 0 0;
#X connect 3 1 0 1;
#X connect 5 0 0 0;
#X connect 5 0 3 0;
#X connect 5 1 0 1;
#X connect 5 1 3 1;
