#N canvas 0 22 676 471 10;
#N canvas 0 50 450 300 (subpatch) 0;
#X array image\$1 10000 float 2;
#X coords 0 1 10000 -1 200 140 1 0 0;
#X restore 52 66 graph;
#X obj 329 172 outlet~;
#X obj 329 128 /~ 100;
#X obj 329 93 clone 100 music-grain \$1;
#X obj 436 296 *~ 100;
#X msg 510 221 0;
#X obj 510 199 r play;
#X obj 436 271 phasor~ 0.2;
#X obj 436 329 s~ \$1phase;
#X text 489 297 playhead is 0-100;
#X obj 189 268 loadbang;
#X obj 189 413 tabwrite image\$1;
#X msg 189 299 10000;
#X obj 233 386 f;
#X obj 260 386 + 1;
#X obj 189 330 until;
#X obj 189 361 t b b;
#X msg 189 386 1;
#X text 18 339 initialize to"white image";
#X connect 2 0 1 0;
#X connect 3 0 2 0;
#X connect 4 0 8 0;
#X connect 5 0 7 1;
#X connect 6 0 5 0;
#X connect 7 0 4 0;
#X connect 10 0 12 0;
#X connect 12 0 15 0;
#X connect 13 0 14 0;
#X connect 13 0 11 1;
#X connect 14 0 13 1;
#X connect 15 0 16 0;
#X connect 16 0 17 0;
#X connect 16 1 13 0;
#X connect 17 0 11 0;
