#N canvas 1528 475 628 478 10;
#X obj 299 255 dac~;
#N canvas 0 22 680 823 dump-image-table 0;
#X obj 155 225 until;
#X obj 155 256 f;
#X obj 184 256 + 1;
#X msg 196 224 0;
#X obj 155 172 t a b;
#X obj 139 691 print;
#X obj 155 82 loadbang;
#X obj 155 134 metro 1000;
#X obj 179 506 tabread image1;
#X obj 155 293 * 100;
#X msg 155 198 100;
#X obj 177 405 until;
#X obj 177 436 f;
#X obj 206 436 + 1;
#X msg 218 404 0;
#X obj 177 352 t a b;
#X msg 177 378 100;
#X obj 177 471 +;
#X obj 263 406 t a;
#X obj 155 325 t b b f b;
#X obj 177 579 list-extend;
#X obj 155 615 list;
#X obj 298 406 t b;
#X obj 290 134 bng 15 250 50 0 empty empty empty 17 7 0 10 -262144
-1 -1;
#X obj 181 539 > 0.5;
#X obj 272 177 print **************;
#X connect 0 0 1 0;
#X connect 1 0 2 0;
#X connect 1 0 9 0;
#X connect 2 0 1 1;
#X connect 3 0 1 1;
#X connect 4 0 10 0;
#X connect 4 1 3 0;
#X connect 7 0 4 0;
#X connect 7 0 25 0;
#X connect 8 0 24 0;
#X connect 9 0 19 0;
#X connect 10 0 0 0;
#X connect 11 0 12 0;
#X connect 12 0 13 0;
#X connect 12 0 17 0;
#X connect 13 0 12 1;
#X connect 14 0 12 1;
#X connect 15 0 16 0;
#X connect 15 1 14 0;
#X connect 16 0 11 0;
#X connect 17 0 8 0;
#X connect 18 0 17 1;
#X connect 19 0 21 0;
#X connect 19 1 15 0;
#X connect 19 2 18 0;
#X connect 19 3 22 0;
#X connect 20 0 21 1;
#X connect 21 0 5 0;
#X connect 22 0 20 1;
#X connect 23 0 4 0;
#X connect 24 0 20 0;
#X restore 43 96 pd dump-image-table;
#X obj 265 170 clone 8 music-image;
#X obj 371 214 rev3~ 100 80 3000 20;
#X text 270 329 [x] panning;
#X text 270 349 [x] cpu reduction;
#X connect 2 0 0 0;
#X connect 2 0 3 0;
#X connect 2 1 0 1;
#X connect 2 1 3 1;
#X connect 3 0 0 0;
#X connect 3 1 0 1;
