#N canvas 611 91 670 342 10;
#X obj 269 255 dac~;
#X text 364 148 num-grains;
#X obj 341 214 rev3~ 100 80 3000 20;
#X obj 257 38 clone 100 music-osc 100;
#X obj 547 208 s 0phase;
#X obj 548 101 metro 4000;
#X obj 549 168 line;
#X msg 550 133 0 \, 1 4000;
#X obj 580 66 tgl 15 0 empty empty empty 17 7 0 10 -262144 -1 -1 0
1;
#X obj 94 191 *~ 0.1;
#X obj 96 161 osc~ 600;
#X obj 240 170 clone 1 music-image 100;
#X text 108 139 test tone;
#X connect 2 0 0 0;
#X connect 2 1 0 1;
#X connect 5 0 7 0;
#X connect 6 0 4 0;
#X connect 7 0 6 0;
#X connect 8 0 5 0;
#X connect 9 0 0 0;
#X connect 9 0 0 1;
#X connect 11 0 0 0;
#X connect 11 0 2 0;
#X connect 11 1 0 1;
#X connect 11 1 2 1;
