#N canvas 786 100 831 781 10;
#X obj 236 322 osc~;
#X obj 236 683 outlet~;
#X obj 236 657 *~;
#X obj 236 68 \$1;
#X obj 236 37 loadbang;
#X obj 236 280 mtof;
#X obj 236 136 -;
#X text 388 281 determines which row we read;
#X text 270 66 determines pitch;
#X text 363 382 invert image (could do this on OpenCV side);
#X msg 236 105 100 \$1;
#X obj 332 176 r phase\$2;
#X obj 332 313 +;
#X obj 332 336 tabread image\$2;
#X obj 332 381 -;
#X msg 332 359 1 \$1;
#X obj 332 571 line~;
#X obj 332 442 > 0.5;
#X obj 332 486 route 0 1;
#X obj 332 464 pack f f;
#X obj 332 418 t a a;
#X msg 332 507 0;
#X text 401 461 threshold (silence values below 0.5);
#X msg 332 548 \$1 40;
#X text 376 547 this should be score dur / image x res in millisec
;
#X obj 236 210 +;
#X obj 96 81 t b a;
#X obj 96 56 r note-root\$2;
#X text 291 100 invert such that 1st music-grain is highest note \,
100th is lowest;
#X obj 347 281 * \$1;
#X obj 347 254 r resolution-x\$2;
#X obj 346 219 r resolution-x\$1;
#X obj 294 216 *;
#X connect 0 0 2 0;
#X connect 2 0 1 0;
#X connect 3 0 10 0;
#X connect 4 0 3 0;
#X connect 5 0 0 0;
#X connect 6 0 25 0;
#X connect 10 0 6 0;
#X connect 11 0 32 0;
#X connect 12 0 13 0;
#X connect 13 0 15 0;
#X connect 14 0 20 0;
#X connect 15 0 14 0;
#X connect 16 0 2 1;
#X connect 17 0 19 0;
#X connect 18 0 21 0;
#X connect 18 1 23 0;
#X connect 19 0 18 0;
#X connect 20 0 17 0;
#X connect 20 1 19 1;
#X connect 21 0 23 0;
#X connect 23 0 16 0;
#X connect 25 0 5 0;
#X connect 26 0 3 0;
#X connect 26 1 25 1;
#X connect 27 0 26 0;
#X connect 29 0 12 1;
#X connect 30 0 29 0;
#X connect 31 0 32 1;
#X connect 32 0 12 0;
