#N canvas 1355 49 826 732 10;
#X obj 117 657 s~ \$1osc;
#X obj 117 68 loadbang;
#X obj 117 551 mtof;
#X obj 117 249 \$1;
#X text 158 310 note-range;
#X obj 117 272 / \$2;
#X obj 117 442 degree-to-note;
#X obj 117 311 * 40;
#X obj 117 367 int;
#X obj 117 223 t b a;
#X obj 117 593 osc~;
#X obj 117 104 array get pentatonic;
#X obj 203 65 r global-scale;
#X obj 416 251 r global-root-note;
#X obj 117 179 list;
#X obj 416 319 t b a;
#X obj 117 515 + 0;
#X obj 117 152 t b a;
#X obj 416 287 - 24;
#X connect 1 0 11 0;
#X connect 2 0 10 0;
#X connect 3 0 5 0;
#X connect 5 0 7 0;
#X connect 6 0 16 0;
#X connect 7 0 8 0;
#X connect 8 0 6 0;
#X connect 9 0 3 0;
#X connect 9 1 6 1;
#X connect 10 0 0 0;
#X connect 11 0 17 0;
#X connect 12 0 17 0;
#X connect 13 0 18 0;
#X connect 14 0 9 0;
#X connect 15 0 14 0;
#X connect 15 1 16 1;
#X connect 16 0 2 0;
#X connect 17 0 14 0;
#X connect 17 1 14 1;
#X connect 18 0 15 0;
