#N canvas 1483 535 903 909 10;
#X obj 45 130 t b b;
#X obj 45 101 until;
#X obj 45 180 random 100;
#X obj 126 181 f;
#X obj 155 181 + 1;
#X obj 45 251 tabwrite image;
#N canvas 0 50 450 300 (subpatch) 0;
#X array image1 10000 float 2;
#X coords 0 1 10000 -1 200 140 1 0 0;
#X restore 241 165 graph;
#X obj 45 217 / 100;
#X msg 141 117 0;
#X obj 45 68 t a b;
#X obj 336 114 dac~;
#X obj 458 86 s play;
#X msg 458 66 0;
#X msg 45 32 10000;
#X obj 553 333 until;
#X obj 553 364 f;
#X obj 582 364 + 1;
#X msg 594 332 0;
#X obj 553 280 t a b;
#X obj 537 799 print;
#X obj 553 190 loadbang;
#X obj 553 242 metro 1000;
#X obj 577 614 tabread image1;
#X obj 553 401 * 100;
#X msg 553 306 100;
#X obj 575 513 until;
#X obj 575 544 f;
#X obj 604 544 + 1;
#X msg 616 512 0;
#X obj 575 460 t a b;
#X msg 575 486 100;
#X obj 575 579 +;
#X obj 661 514 t a;
#X obj 553 433 t b b f b;
#X obj 575 687 list-extend;
#X obj 553 723 list;
#X obj 696 514 t b;
#X obj 688 242 bng 15 250 50 0 empty empty empty 17 7 0 10 -262144
-1 -1;
#X obj 579 647 > 0.5;
#X obj 670 285 print **************;
#X obj 345 35 clone 100 music-voice;
#X obj 345 70 /~ 500;
#X connect 0 0 2 0;
#X connect 0 1 3 0;
#X connect 1 0 0 0;
#X connect 2 0 7 0;
#X connect 3 0 4 0;
#X connect 3 0 5 1;
#X connect 4 0 3 1;
#X connect 7 0 5 0;
#X connect 8 0 3 1;
#X connect 9 0 1 0;
#X connect 9 1 8 0;
#X connect 12 0 11 0;
#X connect 13 0 9 0;
#X connect 14 0 15 0;
#X connect 15 0 16 0;
#X connect 15 0 23 0;
#X connect 16 0 15 1;
#X connect 17 0 15 1;
#X connect 18 0 24 0;
#X connect 18 1 17 0;
#X connect 21 0 18 0;
#X connect 21 0 39 0;
#X connect 22 0 38 0;
#X connect 23 0 33 0;
#X connect 24 0 14 0;
#X connect 25 0 26 0;
#X connect 26 0 27 0;
#X connect 26 0 31 0;
#X connect 27 0 26 1;
#X connect 28 0 26 1;
#X connect 29 0 30 0;
#X connect 29 1 28 0;
#X connect 30 0 25 0;
#X connect 31 0 22 0;
#X connect 32 0 31 1;
#X connect 33 0 35 0;
#X connect 33 1 29 0;
#X connect 33 2 32 0;
#X connect 33 3 36 0;
#X connect 34 0 35 1;
#X connect 35 0 19 0;
#X connect 36 0 34 1;
#X connect 37 0 18 0;
#X connect 38 0 34 0;
#X connect 40 0 41 0;
#X connect 41 0 10 0;
#X connect 41 0 10 1;
