#N canvas 400 175 1300 1059 10;
#X obj 107 1039 dac~;
#X floatatom 138 597 0 0 0 0 - - -;
#X obj 138 645 line~;
#X obj 138 621 pack 0 100;
#X floatatom 63 572 0 0 0 0 - - -;
#X floatatom 489 667 0 0 0 0 - - -;
#X obj 489 739 line~;
#X obj 489 715 pack 0 100;
#X obj 489 691 * 0.01;
#X obj 115 795 +~;
#X obj 475 765 *~;
#X obj 63 668 *~;
#X obj 63 596 / 100;
#X obj 115 819 hip~ 5;
#X obj 63 644 +~ 1;
#X obj 63 620 osc~ 0;
#X obj 63 692 +~ 1.46;
#X text 93 572 <-- cycle frequency (hundredths);
#X text 164 598 <-- cycle depth (msec);
#X obj 475 789 clip~ -1 1;
#X text 537 679 (hundredths);
#X text 516 667 <-- feedback;
#X msg 4 250 next \$1;
#X obj 53 471 dac~;
#X obj 49 421 *~ 1;
#X floatatom 308 647 0 0 0 0 - - -;
#X obj 308 695 line~;
#X obj 308 671 pack 0 100;
#X floatatom 233 622 0 0 0 0 - - -;
#X obj 233 718 *~;
#X obj 233 646 / 100;
#X obj 233 694 +~ 1;
#X obj 233 670 osc~ 0;
#X obj 233 742 +~ 1.46;
#X text 263 622 <-- cycle frequency (hundredths);
#X text 334 648 <-- cycle depth (msec);
#X obj 165 795 +~;
#X obj 165 819 hip~ 5;
#X obj 123 542 bob~;
#X floatatom 179 550 5 0 0 0 - - -, f 5;
#X obj 475 813 delwrite~ \$0chorus 1000;
#X obj 233 766 delread4~ \$0chorus;
#X obj 63 716 delread4~ \$0chorus;
#X obj 137 511 +~ 1500;
#X obj 137 486 *~ 1000;
#X obj 213 542 bob~;
#X obj 227 511 +~ 1500;
#X obj 227 486 *~ 1000;
#X obj 227 461 osc~ 0.5;
#X obj 137 461 osc~ 0.3;
#X obj 6 174 keypiano;
#N canvas 615 22 480 404 note-run 0;
#X obj 152 273 t a;
#X obj 67 222 f;
#X obj 102 222 + 1;
#X obj 138 142 random 2;
#X obj 138 164 sel 0 1;
#X msg 310 179 0;
#X obj 67 273 list prepend;
#X msg 66 93 5;
#X obj 66 125 until;
#X obj 41 22 inlet;
#X text 117 28 generates a sequence of N items increasing by 1 or 2
each time;
#X obj 64 158 t b b;
#X obj 40 309 list;
#X obj 41 57 t b b b;
#X obj 346 178 t b;
#X obj 40 343 outlet;
#X msg 138 193 1;
#X msg 178 193 2;
#X connect 0 0 6 1;
#X connect 1 0 2 0;
#X connect 1 0 6 0;
#X connect 2 0 1 1;
#X connect 3 0 4 0;
#X connect 4 0 16 0;
#X connect 4 1 17 0;
#X connect 5 0 1 1;
#X connect 6 0 0 0;
#X connect 6 0 12 1;
#X connect 7 0 8 0;
#X connect 8 0 11 0;
#X connect 9 0 13 0;
#X connect 11 0 1 0;
#X connect 11 1 3 0;
#X connect 12 0 15 0;
#X connect 13 0 12 0;
#X connect 13 1 7 0;
#X connect 13 2 14 0;
#X connect 14 0 5 0;
#X connect 14 0 6 1;
#X connect 16 0 2 1;
#X connect 17 0 2 1;
#X restore 268 134 pd note-run;
#X obj 268 76 bng 15 250 50 0 empty empty empty 17 7 0 10 -262144 -1
-1;
#X obj 369 205 degree-to-note;
#X obj 387 157 loadbang;
#X obj 368 160 bng 15 250 50 0 empty empty empty 17 7 0 10 -262144
-1 -1;
#X obj 268 206 list-map;
#X obj 369 242 + 60;
#X obj 465 143 random 3;
#X obj 465 166 + 4;
#X obj 465 192 * 12;
#X obj 268 104 t b b;
#X obj 465 220 + 0;
#X obj 268 29 tgl 15 0 empty empty empty 17 7 0 10 -262144 -1 -1 0
1;
#X obj 911 431 hsl 128 15 0 127 0 0 strum-length empty strum-length
-2 -8 0 10 -262144 -1 -1 0 1;
#X obj 151 960 rev3~ 100 90 3000 20;
#X obj 222 916 hsl 128 15 0 127 0 0 empty empty empty -2 -8 0 10 -262144
-1 -1 0 1;
#X text 351 922 overload this (>100) for multiball or something;
#X obj 288 949 hsl 128 15 0 127 0 0 empty empty empty -2 -8 0 10 -262144
-1 -1 0 1;
#X floatatom 228 939 5 0 0 0 - - -, f 5;
#X obj 914 476 hsl 128 15 0.97 0.99 0 0 string-duration empty string-duration
-2 -8 0 10 -262144 -1 -1 0 1;
#N canvas 16 380 450 323 little-tune 0;
#X obj 32 76 metro 250;
#X obj 32 192 list-idx;
#X msg 32 158 0 3 5 7 9;
#X obj 32 127 t b b;
#X obj 111 157 random 5;
#X obj 32 45 tgl 15 0 empty empty empty 17 7 0 10 -262144 -1 -1 0 1
;
#X obj 32 101 t b b;
#X obj 202 192 list-idx;
#X msg 202 158 0 3 5 7 9;
#X obj 202 127 t b b;
#X obj 281 157 random 5;
#X obj 202 76 metro 500;
#X obj 202 225 + 60;
#X obj 32 225 + 48;
#X obj 362 192 list-idx;
#X msg 362 158 0 3 5 7 9;
#X obj 362 127 t b b;
#X obj 441 157 random 5;
#X obj 362 225 + 72;
#X obj 202 297 outlet;
#X obj 32 13 inlet;
#X obj 275 39 tgl 15 0 empty empty empty 17 7 0 10 -262144 -1 -1 0
1;
#X obj 362 102 spigot;
#X obj 362 76 metro 166.666;
#X connect 0 0 6 0;
#X connect 1 0 13 0;
#X connect 2 0 1 0;
#X connect 3 0 2 0;
#X connect 3 1 4 0;
#X connect 4 0 1 1;
#X connect 5 0 0 0;
#X connect 5 0 11 0;
#X connect 5 0 23 0;
#X connect 6 0 3 0;
#X connect 6 1 3 0;
#X connect 7 0 12 0;
#X connect 8 0 7 0;
#X connect 9 0 8 0;
#X connect 9 1 10 0;
#X connect 10 0 7 1;
#X connect 11 0 9 0;
#X connect 12 0 19 0;
#X connect 13 0 19 0;
#X connect 14 0 18 0;
#X connect 15 0 14 0;
#X connect 16 0 15 0;
#X connect 16 1 17 0;
#X connect 17 0 14 1;
#X connect 18 0 19 0;
#X connect 20 0 5 0;
#X connect 21 0 22 1;
#X connect 22 0 16 0;
#X connect 23 0 22 0;
#X coords 0 -1 1 1 77 44 1 264 17;
#X restore 78 87 pd little-tune;
#X obj 78 23 tgl 15 0 empty empty empty 17 7 0 10 -262144 -1 -1 0 1
;
#X obj 915 516 hsl 128 15 0 2 0 0 vibrato-amount empty vibrato-amount
-2 -8 0 10 -262144 -1 -1 0 1;
#X obj 915 556 hsl 128 15 0 20 0 0 vibrato-freq empty vibrato-freq
-2 -8 0 10 -262144 -1 -1 0 1;
#X floatatom 915 577 5 0 0 0 - - -, f 5;
#X obj 498 221 r root-note;
#X obj 914 614 hradio 15 0 0 8 root-note empty root-note 0 -8 0 10
-262144 -1 -1 0;
#X obj 387 181 major-scale;
#X obj 123 333 clone strum-voice 11;
#X obj 123 310 prepent next;
#X obj 123 378 prepent next;
#X floatatom 1072 485 5 0 0 0 - - -, f 5;
#X floatatom 1062 434 5 0 0 0 - - -, f 5;
#X obj 918 122 loadbang;
#X obj 355 43 hsl 128 15 10 1000 0 0 empty empty empty -2 -8 0 10 -262144
-1 -1 0 1;
#X obj 123 355 list split 1;
#X obj 219 886 r reverb-amount;
#X floatatom 304 975 5 0 0 0 - - -, f 5;
#X obj 422 970 r reverb-damping;
#X obj 552 356 bng 15 250 50 0 empty empty empty 17 7 0 10 -262144
-1 -1;
#X obj 636 322 degree-to-note;
#X obj 654 274 loadbang;
#X obj 632 363 + 60;
#X obj 732 260 random 3;
#X obj 732 283 + 4;
#X obj 732 309 * 12;
#X obj 732 337 + 0;
#X obj 765 338 r root-note;
#X obj 654 298 major-scale;
#X obj 636 208 t a b;
#X obj 330 398 +~;
#X obj 635 181 random 7;
#X obj 566 400 prepent next;
#X obj 679 138 bng 15 250 50 0 empty empty empty 17 7 0 10 -262144
-1 -1;
#X obj 268 53 dust 300;
#X obj 617 285 bng 15 250 50 0 empty empty empty 17 7 0 10 -262144
-1 -1;
#X obj 911 391 hsl 128 15 0 127 0 0 bell-duration empty bell-duration
-2 -8 0 10 -262144 -1 -1 3400 1;
#X floatatom 1073 386 5 0 0 0 - - -, f 5;
#X msg 918 172 \; strum-length 25 \; string-duration 0.977 \; vibrato-amount
0 \; vibrato-freq 1.7 \; reverb-amount 73 \; reverb-damping 83 \; bell-duration
33;
#X obj 635 84 r hit-walls;
#X obj 635 137 until;
#X obj 502 101 until;
#X obj 502 48 r hit-objects;
#X obj 502 76 m_speedlimit 30;
#X obj 635 108 m_speedlimit 30;
#X obj 568 431 clone bell-voice 5;
#X obj 123 402 clone spring-voice 5;
#X obj 657 44 r hit-list;
#X obj 744 50 list trim;
#X obj 750 76 unpack f f;
#X connect 1 0 3 0;
#X connect 2 0 11 1;
#X connect 3 0 2 0;
#X connect 4 0 12 0;
#X connect 5 0 8 0;
#X connect 6 0 10 1;
#X connect 7 0 6 0;
#X connect 8 0 7 0;
#X connect 9 0 13 0;
#X connect 10 0 19 0;
#X connect 11 0 16 0;
#X connect 12 0 15 0;
#X connect 13 0 10 0;
#X connect 13 0 65 0;
#X connect 13 0 0 0;
#X connect 14 0 11 0;
#X connect 15 0 14 0;
#X connect 16 0 42 0;
#X connect 19 0 40 0;
#X connect 22 0 117 0;
#X connect 24 0 23 0;
#X connect 24 0 23 1;
#X connect 25 0 27 0;
#X connect 26 0 29 1;
#X connect 27 0 26 0;
#X connect 28 0 30 0;
#X connect 29 0 33 0;
#X connect 30 0 32 0;
#X connect 31 0 29 0;
#X connect 32 0 31 0;
#X connect 33 0 41 0;
#X connect 36 0 37 0;
#X connect 37 0 65 1;
#X connect 37 0 0 1;
#X connect 38 0 9 0;
#X connect 39 0 38 2;
#X connect 39 0 45 2;
#X connect 41 0 36 1;
#X connect 42 0 9 1;
#X connect 43 0 38 1;
#X connect 44 0 43 0;
#X connect 45 0 36 0;
#X connect 46 0 45 1;
#X connect 47 0 46 0;
#X connect 48 0 47 0;
#X connect 49 0 44 0;
#X connect 50 0 22 0;
#X connect 51 0 56 0;
#X connect 52 0 61 0;
#X connect 53 0 57 0;
#X connect 54 0 78 0;
#X connect 55 0 78 0;
#X connect 56 0 80 0;
#X connect 56 1 53 0;
#X connect 57 0 56 1;
#X connect 58 0 59 0;
#X connect 59 0 60 0;
#X connect 60 0 62 0;
#X connect 61 0 51 0;
#X connect 61 1 58 0;
#X connect 62 0 57 1;
#X connect 63 0 105 0;
#X connect 64 0 83 0;
#X connect 65 0 0 0;
#X connect 65 1 0 1;
#X connect 66 0 65 3;
#X connect 66 0 69 0;
#X connect 68 0 65 5;
#X connect 68 0 88 0;
#X connect 69 0 65 3;
#X connect 70 0 82 0;
#X connect 71 0 80 0;
#X connect 72 0 71 0;
#X connect 74 0 75 0;
#X connect 76 0 62 1;
#X connect 78 0 53 1;
#X connect 79 0 86 0;
#X connect 80 0 79 0;
#X connect 81 0 117 0;
#X connect 84 0 109 0;
#X connect 85 0 105 1;
#X connect 86 1 81 0;
#X connect 87 0 65 3;
#X connect 89 0 65 5;
#X connect 91 0 93 0;
#X connect 92 0 99 0;
#X connect 93 0 103 0;
#X connect 94 0 95 0;
#X connect 95 0 96 0;
#X connect 96 0 97 0;
#X connect 97 0 93 1;
#X connect 98 0 97 1;
#X connect 99 0 91 1;
#X connect 100 0 91 0;
#X connect 100 1 94 0;
#X connect 101 0 45 0;
#X connect 101 0 38 0;
#X connect 102 0 100 0;
#X connect 103 0 116 0;
#X connect 104 0 102 0;
#X connect 105 0 52 0;
#X connect 106 0 99 0;
#X connect 107 0 108 0;
#X connect 110 0 115 0;
#X connect 111 0 102 0;
#X connect 112 0 61 0;
#X connect 113 0 114 0;
#X connect 114 0 112 0;
#X connect 115 0 111 0;
#X connect 116 0 101 0;
#X connect 117 0 101 0;
#X connect 118 0 119 0;
#X connect 119 0 120 0;
#X connect 120 0 112 0;
#X connect 120 1 111 0;
#X coords 0 0 1 1 114 119 0;
