#N canvas 574 481 685 541 10;
#X obj 291 214 osc~;
#X obj 291 166 mtof;
#X obj 291 107 t a b;
#X obj 291 306 outlet~;
#X obj 291 250 *~;
#X obj 291 58 inlet;
#X obj 357 198 vline~;
#X obj 355 226 *~;
#X msg 358 152 1 10 \, 0 1000 10;
#X connect 0 0 4 0;
#X connect 1 0 0 0;
#X connect 2 0 1 0;
#X connect 2 1 8 0;
#X connect 4 0 3 0;
#X connect 5 0 2 0;
#X connect 6 0 7 0;
#X connect 6 0 7 1;
#X connect 7 0 4 1;
#X connect 8 0 6 0;
