#N canvas 872 23 742 665 10;
#X obj 76 276 outlet~;
#X obj 106 238 pan~;
#X obj 153 276 outlet~;
#X obj 169 218 r \$1pan;
#X obj 56 409 r \$1resolution-y;
#X obj 56 430 change;
#X obj 56 452 s \$1resolution-y-change;
#X obj 169 240 change;
#X obj 253 301 r \$1phase;
#X obj 106 168 *~;
#X obj 169 178 line~;
#X msg 169 153 \$1 10;
#X obj 169 128 r \$1volume;
#X obj 106 132 /~ 25;
#X obj 305 385 metro 50;
#X obj 305 354 tgl 15 0 empty empty empty 17 7 0 10 -262144 -1 -1 1
1;
#X obj 253 449 s \$1tick-grains;
#X obj 253 338 t b;
#X text 323 303 misnomer \, we just use this to drive reading the table.
phase is handled automatically by just writing the current state to
the table.;
#X obj 106 96 clone \$2 vocoder-grain \$1 \$2;
#X obj 449 399 inlet;
#X connect 1 0 0 0;
#X connect 1 1 2 0;
#X connect 3 0 7 0;
#X connect 4 0 5 0;
#X connect 5 0 6 0;
#X connect 7 0 1 1;
#X connect 8 0 17 0;
#X connect 9 0 1 0;
#X connect 10 0 9 1;
#X connect 11 0 10 0;
#X connect 12 0 11 0;
#X connect 13 0 9 0;
#X connect 14 0 17 0;
#X connect 15 0 14 0;
#X connect 17 0 16 0;
#X connect 19 0 13 0;
#X connect 20 0 15 0;
