#N canvas 1587 205 657 757 10;
#X obj 71 680 outlet~;
#X obj 71 654 *~;
#X obj 197 588 line~;
#X obj 222 278 int;
#X obj 222 148 loadbang;
#X obj 222 213 / \$3;
#X obj 308 194 t b a;
#X obj 308 173 r \$2resolution-y-change;
#X obj 222 170 \$3;
#X obj 222 191 - \$1;
#X msg 197 565 \$1 10;
#X obj 71 109 r~ \$1osc;
#X text 233 333 add x-coordinate along row;
#X obj 197 441 change;
#X obj 197 121 t b;
#X obj 424 489 print-if \$1 == 50 foo;
#X obj 197 71 r \$2tick-grains;
#X obj 197 403 tabread mic-fft;
#X obj 197 331 i;
#X obj 222 254 * 100;
#X connect 1 0 0 0;
#X connect 2 0 1 1;
#X connect 3 0 18 1;
#X connect 4 0 8 0;
#X connect 5 0 19 0;
#X connect 6 0 8 0;
#X connect 6 1 19 1;
#X connect 7 0 6 0;
#X connect 8 0 9 0;
#X connect 9 0 5 0;
#X connect 10 0 2 0;
#X connect 11 0 1 0;
#X connect 13 0 10 0;
#X connect 14 0 18 0;
#X connect 16 0 14 0;
#X connect 17 0 13 0;
#X connect 18 0 17 0;
#X connect 19 0 3 0;
