#N canvas 1134 248 497 392 10;
#X obj 138 262 dac~;
#X obj 96 148 prepent next;
#X obj 96 119 list-drip;
#X obj 96 88 r ball-collisions;
#X obj 96 216 *~ 0.1;
#X obj 290 167 s bell-length;
#X msg 290 138 100;
#X obj 290 110 loadbang;
#X obj 96 176 clone ball-voice 100;
#X obj 213 216 *~ 0.1;
#X connect 1 0 8 0;
#X connect 2 0 1 0;
#X connect 3 0 2 0;
#X connect 4 0 0 0;
#X connect 6 0 5 0;
#X connect 7 0 6 0;
#X connect 8 0 4 0;
#X connect 8 1 9 0;
#X connect 9 0 0 1;
