#N canvas 978 145 611 726 10;
#X obj 113 333 osc~;
#X obj 113 291 mtof;
#X obj 113 256 degree-to-note2;
#X obj 200 194 loadbang;
#X obj 113 400 *~;
#X obj 83 652 outlet~;
#X obj 113 194 random 20;
#X obj 113 2 inlet;
#X obj 113 501 *~;
#X obj 382 237 vline~;
#X obj 382 193 f;
#X obj 410 193 r bell-length;
#X obj 382 259 *~;
#X obj 307 354 t a;
#X obj 113 112 t b b a;
#X msg 382 215 1 3 \, 0 \$1 3;
#X msg 142 233 4;
#X obj 156 648 outlet~;
#X obj 134 551 loadbang;
#X obj 113 614 pan~;
#X obj 134 572 random 1000;
#X obj 134 594 / 1000;
#X obj 113 48 unpack f f;
#X obj 193 309 sig~ 0.5;
#X obj 307 377 pow 2;
#X text 191 47 pitch octave length;
#X obj 201 228 r bell-scale;
#X obj 113 532 *~ 0.1;
#X obj 156 334 blsquare~ 0.5;
#X connect 0 0 4 0;
#X connect 1 0 0 0;
#X connect 1 0 28 0;
#X connect 2 0 1 0;
#X connect 3 0 16 0;
#X connect 4 0 8 0;
#X connect 6 0 2 0;
#X connect 7 0 22 0;
#X connect 8 0 27 0;
#X connect 9 0 12 0;
#X connect 9 0 12 1;
#X connect 10 0 15 0;
#X connect 11 0 10 1;
#X connect 12 0 4 1;
#X connect 13 0 24 0;
#X connect 14 0 6 0;
#X connect 14 1 10 0;
#X connect 14 2 13 0;
#X connect 15 0 9 0;
#X connect 16 0 2 1;
#X connect 18 0 20 0;
#X connect 19 0 5 0;
#X connect 19 1 17 0;
#X connect 20 0 21 0;
#X connect 21 0 19 1;
#X connect 22 0 14 0;
#X connect 22 1 2 1;
#X connect 23 0 28 1;
#X connect 24 0 8 1;
#X connect 26 0 2 3;
#X connect 27 0 19 0;
#X connect 28 0 4 0;
