#N canvas 560 76 728 695 10;
#X obj 138 592 dac~;
#X obj 96 418 prepent next;
#X obj 96 369 list-drip;
#X obj 96 338 r ball-collisions;
#X obj 300 177 s bell-length;
#X obj 300 120 loadbang;
#X obj 40 29 tgl 15 0 empty empty empty 17 7 0 10 -262144 -1 -1 1 1
;
#X obj 55 126 random 10;
#X obj 55 146 / 20;
#X obj 40 171 f;
#X obj 157 90 random 2;
#X obj 40 201 t a b;
#X obj 40 283 pack f f;
#X obj 157 112 sel 0 1;
#X msg 191 149 3;
#X obj 96 546 *~ 0.5;
#X obj 213 546 *~ 0.5;
#X floatatom 362 401 0 0 120 0 - - -;
#X text 403 401 level \, dB;
#X floatatom 397 423 0 0 100 0 - - -;
#X text 438 423 liveness \, 0-100;
#X floatatom 432 447 4 0 5000 0 - - -, f 4;
#X floatatom 467 470 0 0 100 0 - - -;
#X text 480 445 crossover frequency \, Hz.;
#X text 503 472 HF damping \, percent;
#X obj 292 496 rev3~ 100 90 3000 20;
#X msg 300 148 50;
#X obj 40 52 dust 100;
#X obj 100 27 hsl 128 15 0 500 0 0 empty empty empty -2 -8 0 10 -262144
-1 -1 1700 1;
#X obj 359 150 hsl 128 15 0 2000 0 0 empty empty empty -2 -8 0 10 -262144
-1 -1 0 1;
#X text 298 32 isolated has long close has short (keep track of how
long since collision with another ball \, increase tail length for
longer) fade from colors to change scales;
#X obj 300 327 s bell-scale;
#X obj 300 228 penta-scale;
#X msg 387 280 1 1.25 1.5 1.75 2;
#X obj 300 204 bng 15 250 50 0 empty empty empty 17 7 0 10 -262144
-1 -1;
#X msg 388 300 1 1.1 1.2 1.3 1.4 1.5 1.6 1.7 1.8 1.9 2;
#X msg 387 260 1 1.33 1.66 2;
#X msg 386 220 1 3 5 7 9 11;
#X obj 96 446 clone ball-voice 100;
#X msg 386 240 1 2 3 4 5 6 7 8 9 10 11;
#X obj 176 216 + 2;
#X msg 158 148 2;
#X obj 176 188 random 5;
#X obj 252 239 loadbang;
#X connect 1 0 38 0;
#X connect 2 0 1 0;
#X connect 3 0 2 0;
#X connect 5 0 26 0;
#X connect 6 0 27 0;
#X connect 7 0 8 0;
#X connect 8 0 9 1;
#X connect 9 0 11 0;
#X connect 10 0 13 0;
#X connect 11 0 12 0;
#X connect 11 1 10 0;
#X connect 12 0 1 0;
#X connect 13 0 41 0;
#X connect 13 1 14 0;
#X connect 13 1 42 0;
#X connect 14 0 12 1;
#X connect 15 0 0 0;
#X connect 16 0 0 1;
#X connect 17 0 25 2;
#X connect 19 0 25 3;
#X connect 21 0 25 4;
#X connect 22 0 25 5;
#X connect 25 0 15 0;
#X connect 25 1 16 0;
#X connect 26 0 4 0;
#X connect 27 0 7 0;
#X connect 27 0 9 0;
#X connect 28 0 27 1;
#X connect 29 0 4 0;
#X connect 32 0 31 0;
#X connect 33 0 31 0;
#X connect 34 0 32 0;
#X connect 35 0 31 0;
#X connect 36 0 31 0;
#X connect 37 0 31 0;
#X connect 38 0 15 0;
#X connect 38 0 25 0;
#X connect 38 1 16 0;
#X connect 38 1 25 1;
#X connect 39 0 31 0;
#X connect 40 0 12 1;
#X connect 41 0 12 1;
#X connect 42 0 40 0;
#X connect 43 0 32 0;
