#N canvas 1091 585 489 496 10;
#X obj 113 243 osc~;
#X obj 113 201 mtof;
#X obj 113 166 degree-to-note2;
#X obj 200 114 loadbang;
#X obj 113 310 *~;
#X obj 113 442 outlet~;
#X obj 113 104 random 20;
#X obj 200 144 penta-scale;
#X obj 113 2 inlet;
#X obj 113 361 *~;
#X obj 312 147 vline~;
#X obj 312 103 f;
#X obj 340 103 r bell-length;
#X obj 312 169 *~;
#X obj 307 264 t a;
#X obj 113 22 t b b a;
#X msg 312 125 1 3 \, 0 \$1 3;
#X msg 142 143 4;
#X obj 186 438 outlet~;
#X obj 185 338 loadbang;
#X obj 113 404 pan~;
#X obj 185 365 random 1000;
#X obj 185 387 / 1000;
#X connect 0 0 4 0;
#X connect 1 0 0 0;
#X connect 2 0 1 0;
#X connect 3 0 17 0;
#X connect 3 0 7 0;
#X connect 4 0 9 0;
#X connect 6 0 2 0;
#X connect 7 0 2 3;
#X connect 8 0 15 0;
#X connect 9 0 20 0;
#X connect 10 0 13 0;
#X connect 10 0 13 1;
#X connect 11 0 16 0;
#X connect 12 0 11 1;
#X connect 13 0 4 1;
#X connect 14 0 9 1;
#X connect 15 0 6 0;
#X connect 15 1 11 0;
#X connect 15 2 14 0;
#X connect 16 0 10 0;
#X connect 17 0 2 1;
#X connect 19 0 21 0;
#X connect 20 0 5 0;
#X connect 20 1 18 0;
#X connect 21 0 22 0;
#X connect 22 0 20 1;
