#N canvas 0 22 494 232 10;
#X obj 59 153 degree-to-note;
#X obj 168 60 * 12;
#X obj 59 180 +;
#X obj 168 88 +;
#X msg 356 62 0 2 4 5 7 9 11;
#X obj 334 88 t a;
#X obj 356 35 loadbang;
#X obj 59 202 outlet;
#X obj 168 17 inlet octave;
#X obj 59 16 inlet degree;
#X obj 254 15 inlet root;
#X obj 334 15 inlet scale;
#X connect 0 0 2 0;
#X connect 1 0 3 0;
#X connect 2 0 7 0;
#X connect 3 0 2 1;
#X connect 4 0 5 0;
#X connect 5 0 0 1;
#X connect 6 0 4 0;
#X connect 8 0 1 0;
#X connect 9 0 0 0;
#X connect 10 0 3 1;
#X connect 11 0 5 0;
