#N canvas 615 22 714 288 10;
#X obj 97 67 inlet;
#X obj 97 223 outlet;
#X text 108 126 scale input range to 0-1;
#X text 110 193 scale 0-1 to output range;
#X obj 185 24 inlet;
#X obj 191 45 loadbang;
#X obj 97 104 expr ($f1 - $f2) / ($f3 - $f2);
#X obj 274 24 inlet;
#X obj 280 45 loadbang;
#X obj 355 24 inlet;
#X obj 361 45 loadbang;
#X obj 444 24 inlet;
#X obj 450 45 loadbang;
#X obj 97 171 expr ($f1 * ($f3 - $f2)) + $f2;
#X obj 185 67 f \$1;
#X obj 274 67 f \$2;
#X obj 355 68 f \$3;
#X obj 444 67 f \$4;
#X connect 0 0 6 0;
#X connect 4 0 14 0;
#X connect 5 0 14 0;
#X connect 6 0 13 0;
#X connect 7 0 15 0;
#X connect 8 0 15 0;
#X connect 9 0 16 0;
#X connect 10 0 16 0;
#X connect 11 0 17 0;
#X connect 12 0 17 0;
#X connect 13 0 1 0;
#X connect 14 0 6 1;
#X connect 15 0 6 2;
#X connect 16 0 13 1;
#X connect 17 0 13 2;
