#N canvas 917 246 509 251 10;
#X obj 57 155 array define major;
#X obj 57 39 loadbang;
#X msg 57 63 0 2 4 5 7 9 11;
#X obj 84 111 list length;
#X msg 84 131 resize \$1;
#X obj 57 89 t a a;
#X obj 187 39 loadbang;
#X obj 214 111 list length;
#X msg 214 131 resize \$1;
#X obj 187 89 t a a;
#X obj 187 155 array define minor;
#X msg 187 63 0 2 3 5 7 8 10;
#X obj 307 39 loadbang;
#X obj 334 111 list length;
#X msg 334 131 resize \$1;
#X obj 307 89 t a a;
#X obj 307 155 array define pentatonic;
#X msg 307 63 1 3 6 8 10;
#X connect 1 0 2 0;
#X connect 2 0 5 0;
#X connect 3 0 4 0;
#X connect 4 0 0 0;
#X connect 5 0 0 0;
#X connect 5 1 3 0;
#X connect 6 0 11 0;
#X connect 7 0 8 0;
#X connect 8 0 10 0;
#X connect 9 0 10 0;
#X connect 9 1 7 0;
#X connect 11 0 9 0;
#X connect 12 0 17 0;
#X connect 13 0 14 0;
#X connect 14 0 16 0;
#X connect 15 0 16 0;
#X connect 15 1 13 0;
#X connect 17 0 15 0;
