#N canvas 1451 279 756 629 10;
#X obj 78 193 osc~;
#X obj 78 392 *~ 0.1;
#X obj 376 361 delwrite~ \$0echo 500;
#X obj 108 273 vline~;
#X obj 78 322 *~;
#X obj 78 147 vline~;
#X obj 107 302 *~;
#X obj 269 141 noise~;
#X obj 288 258 vline~;
#X obj 268 322 *~;
#X obj 287 287 *~;
#X msg 288 236 0 \, 1 5 \, 0 10 5;
#X obj 75 556 *~ 1;
#X msg 78 109 100 \, 300 50;
#X msg 108 251 0 \, 0.2 10 \, 0 50 10;
#X obj 362 406 delread~ \$0echo 10;
#X obj 362 428 *~ 0.5;
#X obj 169 495 catch~ \$0delays;
#X obj 361 506 throw~ \$0delays;
#X obj 517 484 hip~ 500;
#X obj 269 185 lop~ 800;
#X obj 75 592 outlet~;
#X obj 78 53 inlet;
#X obj 517 452 rev1~;
#X msg 530 421 0.5;
#X obj 530 398 loadbang;
#X connect 0 0 4 0;
#X connect 1 0 12 0;
#X connect 1 0 2 0;
#X connect 1 0 23 0;
#X connect 3 0 6 1;
#X connect 3 0 6 0;
#X connect 4 0 1 0;
#X connect 5 0 0 0;
#X connect 6 0 4 1;
#X connect 7 0 20 0;
#X connect 8 0 10 1;
#X connect 8 0 10 0;
#X connect 9 0 1 0;
#X connect 10 0 9 1;
#X connect 11 0 8 0;
#X connect 12 0 21 0;
#X connect 13 0 5 0;
#X connect 14 0 3 0;
#X connect 15 0 16 0;
#X connect 16 0 18 0;
#X connect 17 0 12 0;
#X connect 19 0 12 0;
#X connect 20 0 9 0;
#X connect 22 0 13 0;
#X connect 22 0 14 0;
#X connect 22 0 11 0;
#X connect 23 0 19 0;
#X connect 24 0 23 1;
#X connect 25 0 24 0;
