#N canvas 385 37 1038 605 10;
#X obj 226 406 dac~;
#X obj 235 30 bng 50 250 50 0 empty empty empty 17 7 0 10 -262144 -1
-1;
#X msg 235 303 next \$1;
#X obj 235 339 clone pong-voice 8;
#X obj 16 406 dac~;
#X obj 25 30 bng 50 250 50 0 empty empty empty 17 7 0 10 -262144 -1
-1;
#X obj 25 339 clone pong-voice 8;
#X obj 50 100 r hit-wall;
#X obj 250 90 r hit-object;
#X obj 686 506 dac~;
#X obj 545 30 bng 50 250 50 0 empty empty empty 17 7 0 10 -262144 -1
-1;
#X obj 620 328 list-map;
#X obj 615 90 r scored-point;
#X obj 235 142 major-scale;
#X obj 25 142 major-scale;
#X obj 235 278 list-map;
#X obj 297 278 + 72;
#X obj 235 190 list-shuffle;
#X obj 235 216 list split 3;
#X msg 25 303 next \$1;
#X obj 25 278 list-map;
#X obj 25 190 list-shuffle;
#X obj 25 216 list split 3;
#X obj 87 278 + 60;
#X obj 801 25 loadbang;
#X msg 801 53 \; pd dsp 1;
#X obj 25 243 list-drip;
#X obj 235 243 list-drip;
#X obj 695 388 list prepend next;
#X obj 695 414 list trim;
#X obj 580 541 score-voice;
#X obj 858 114 r new-game;
#X obj 471 36 tgl 15 0 empty empty empty 17 7 0 10 -262144 -1 -1 0
1;
#X msg 545 246 0 3 8;
#X obj 697 301 + 72;
#X obj 697 278 * 2;
#X obj 397 219 pong-ball;
#X obj 25 380 *~ 0.01;
#X obj 725 247 + 1;
#X obj 697 247 f;
#X obj 615 124 sel 0;
#X msg 858 138 0;
#X obj 805 246 + 1;
#X obj 777 246 f;
#X text 856 95 reset score modulation;
#X msg 615 246 8 3 0;
#X obj 610 157 t b b;
#X obj 657 157 t b b;
#X text 573 187 per-player modulation index and melody;
#X obj 682 328 +;
#X text 42 533 [ ] implement panning for collisions;
#X obj 695 439 clone score-voice 8;
#X msg 543 105 0;
#X obj 885 286 list-map;
#X obj 945 286 + 72;
#X msg 885 252 0 8 10 12 \, 10 3 0 -4;
#X text 883 313 new game jingle;
#X obj 471 59 metro 1000;
#X obj 235 380 *~ 0.005;
#X obj 695 480 *~ 0.05;
#X obj 235 117 t b;
#X connect 1 0 60 0;
#X connect 2 0 3 0;
#X connect 3 0 58 0;
#X connect 5 0 14 0;
#X connect 6 0 37 0;
#X connect 7 0 14 0;
#X connect 8 0 60 0;
#X connect 10 0 52 0;
#X connect 11 0 28 0;
#X connect 11 1 49 0;
#X connect 12 0 40 0;
#X connect 13 0 17 0;
#X connect 14 0 21 0;
#X connect 15 0 2 0;
#X connect 15 1 16 0;
#X connect 16 0 15 1;
#X connect 17 0 18 0;
#X connect 18 0 27 0;
#X connect 19 0 6 0;
#X connect 20 0 19 0;
#X connect 20 1 23 0;
#X connect 21 0 22 0;
#X connect 22 0 26 0;
#X connect 23 0 20 1;
#X connect 24 0 25 0;
#X connect 26 0 20 0;
#X connect 27 0 15 0;
#X connect 28 0 29 0;
#X connect 29 0 51 0;
#X connect 30 0 59 0;
#X connect 31 0 41 0;
#X connect 31 0 55 0;
#X connect 32 0 57 0;
#X connect 33 0 11 0;
#X connect 34 0 49 1;
#X connect 35 0 34 0;
#X connect 36 0 0 1;
#X connect 36 0 0 0;
#X connect 37 0 4 0;
#X connect 37 0 4 1;
#X connect 38 0 39 1;
#X connect 39 0 38 0;
#X connect 39 0 35 0;
#X connect 40 0 46 0;
#X connect 40 1 47 0;
#X connect 41 0 39 1;
#X connect 41 0 43 1;
#X connect 42 0 43 1;
#X connect 43 0 42 0;
#X connect 43 0 35 0;
#X connect 45 0 11 0;
#X connect 46 0 33 0;
#X connect 46 1 39 0;
#X connect 47 0 45 0;
#X connect 47 1 43 0;
#X connect 49 0 11 1;
#X connect 51 0 59 0;
#X connect 52 0 40 0;
#X connect 53 0 28 0;
#X connect 53 1 54 0;
#X connect 54 0 53 1;
#X connect 55 0 53 0;
#X connect 57 0 1 0;
#X connect 58 0 0 0;
#X connect 58 0 0 1;
#X connect 59 0 9 0;
#X connect 59 0 9 1;
#X connect 60 0 13 0;
#X connect 60 0 36 0;
