#N canvas 894 280 608 570 10;
#X obj 32 160 list split 1;
#X obj 511 211 vline~;
#X obj 228 491 *~;
#X obj 502 234 *~;
#X obj 33 255 mtof;
#X obj 33 123 list;
#X obj 461 140 t b b;
#X obj 461 178 del 50;
#X obj 33 76 list-repeat 3;
#X obj 33 23 inlet;
#X obj 228 529 outlet~;
#X obj 182 306 vline~;
#X msg 141 39 60 65 69;
#X obj 172 85 tgl 15 0 empty empty empty 17 7 0 10 -262144 -1 -1 0
1;
#X obj 164 59 metro 1000;
#X obj 182 341 mtof~;
#X obj 33 48 t a b;
#X text 396 207 amp env (per note);
#X text 239 304 filter env (whole phrase);
#X obj 18 377 blsaw~;
#X obj 18 311 osc~ 7;
#X obj 18 355 +~;
#X obj 238 336 osc~ 5;
#X obj 238 391 +~ 200;
#X obj 238 366 *~ 100;
#X obj 256 420 sig~ 1.4;
#X obj 18 332 *~ 5;
#X msg 511 179 1 10 \, 0 300 10;
#X msg 182 270 50 \, 100 300 \, 50 10 650;
#X obj 228 446 bob~;
#X connect 0 0 4 0;
#X connect 0 0 6 0;
#X connect 0 1 5 1;
#X connect 1 0 3 0;
#X connect 1 0 3 1;
#X connect 2 0 10 0;
#X connect 3 0 2 1;
#X connect 4 0 21 1;
#X connect 5 0 0 0;
#X connect 6 0 7 0;
#X connect 6 1 27 0;
#X connect 7 0 5 0;
#X connect 8 0 5 0;
#X connect 9 0 16 0;
#X connect 11 0 15 0;
#X connect 12 0 16 0;
#X connect 13 0 14 0;
#X connect 14 0 12 0;
#X connect 15 0 29 1;
#X connect 16 0 8 0;
#X connect 16 1 28 0;
#X connect 19 0 29 0;
#X connect 20 0 26 0;
#X connect 21 0 19 0;
#X connect 22 0 24 0;
#X connect 23 0 29 1;
#X connect 24 0 23 0;
#X connect 25 0 29 2;
#X connect 26 0 21 0;
#X connect 27 0 1 0;
#X connect 28 0 11 0;
#X connect 29 0 2 0;
